<svg viewBox="0 0 432 116" xmlns="http://www.w3.org/2000/svg"><g><path d="m38.1 7.9l15.6 24.8-15.4 45.8-32 13.9 31.8-84.5m-.7-7.9l39.2 61.9 23-10-36.8-51.9h-25.4m78.8 48.8l-116.2 50.3 24.8 16.9 77.9-33.1 13.5-34.1"/><path d="m353.6 67.2c.2 2.1.6 4.1 1.5 5.4 1.3 1.9 4.1 3.4 7.7 3.4 3.1 0 5.5-.9 8-3.6l6.3 4.7c-4.2 4.7-9 6.4-14.2 6.4-6.1.1-11.5-2.5-14.4-6.8-2.7-4-2.9-9.1-2.9-12.5 0-3.7.3-8.6 2.9-12.5 3-4.4 7.8-6.7 13.7-6.7 5.4 0 9.9 2.3 12.8 6.7 2.8 4.1 2.4 10.5 2.3 15.3h-23.7v.2m14.8-11.2c-1.5-2.2-3.5-3.2-6.3-3.2-5.1 0-7.5 2.6-8.4 6.9h15.6c-.1-1.7-.5-3.1-.9-3.7"/><path d="m297.2 67.9c-1.9 12.8-10.8 15.1-22.2 15.1h-17v-53.5h17c11.4 0 20.3 2.2 22.2 15.1.5 3.8.6 7.8.6 11.6 0 3.8-.1 7.9-.6 11.7m-22.2-30.5h-8.8v37.6h8.8c15.2 0 14.7-5.2 14.7-18.8 0-13.6.5-18.8-14.7-18.8"/><path d="m305.4 82.9v-37.8h7.9v37.9h-7.9v-.1"/><path d="m305.4 38.2v-9.1h7.9v9.1h-7.9"/><path d="m341.4 54.1c-2.3-1.3-3.6-1.5-5.1-1.5-3.1 0-7.1 1.8-7.1 5.4v24.9h-7.7v-37.4h7.7v1.1c2.1-1 4.6-1.5 7.1-1.5 2.7 0 5.1.5 8.5 2l-3.4 7"/><path d="m398.9 83.6c-10.9 0-17.3-8.2-17.3-19.5 0-11.3 6.4-19.5 17.3-19.5 5.4 0 8.9 1.5 14.4 7.4l-5.7 5.1c-4.1-4.4-5.8-5.1-8.7-5.1-3.2 0-5.7 1.2-7.3 3.4-1.4 1.8-2 4.4-2 8.7 0 4.2.6 6.8 2 8.7 1.6 2.3 4.1 3.4 7.3 3.4 2.8 0 4.5-.6 8.7-5l5.7 5.1c-5.5 5.8-9 7.3-14.4 7.3"/><path d="m417.8 45.1v-8.8l7.5-1.3v10.1h6.7v7h-6.7v20.9c0 .5-.1 1.1.1 1.7.2.3.4.5.9.5h4.8v7.7h-4.8c-2.9 0-5.6-1.3-7.1-3.8-1.3-2.1-1.4-4.4-1.4-6.1v-20.9-7"/><path d="m171.4 82.9l-6-15h-20.7l-6 15h-8.7l21.2-53.5h7.7l21.2 53.5h-8.7m-16.3-41.1l-7.3 18.4h14.6l-7.3-18.4"/><path d="m212.4 76.7c-2.6 4.6-7.5 7.1-13.2 7.1-2.6 0-5.1-.5-7.4-1.7v17.7h-7.8v-54.1h7.8v1.2c2.2-1.2 4.8-1.7 7.4-1.7 5.7 0 10.6 2.5 13.2 7.1 2.4 4.1 2.6 8.7 2.5 12.3.1 3.6-.2 8.2-2.5 12.1m-6.8-20.6c-1.1-1.9-3.3-3.1-6.4-3.1-3.1-.1-5.3 1.2-6.4 3.1-.5.9-.8 2.1-1 3.4v9.8c.2 1.4.5 2.5 1 3.4 1.1 1.9 3.3 3.2 6.4 3.2 3.1 0 5.3-1.3 6.4-3.2 1.3-2.1 1.5-5.1 1.5-8.4 0-2.9-.2-5.9-1.5-8.2"/><path d="m249 76.7c-2.6 4.6-7.5 7.1-13.2 7.1-2.6 0-5.1-.5-7.4-1.7v17.7h-7.8v-54.1h7.8v1.2c2.2-1.2 4.7-1.7 7.4-1.7 5.7 0 10.6 2.5 13.2 7.1 2.4 4.1 2.6 8.7 2.5 12.3 0 3.6-.2 8.2-2.5 12.1m-6.8-20.6c-1.1-1.9-3.3-3.1-6.4-3.1-3.1-.1-5.3 1.2-6.4 3.1-.5.9-.8 2.1-1 3.4v9.8c.2 1.4.5 2.5 1 3.4 1.1 1.9 3.3 3.2 6.4 3.2 3.1 0 5.3-1.3 6.4-3.2 1.3-2.1 1.5-5.1 1.5-8.4 0-2.9-.2-5.9-1.5-8.2"/></g></svg>
