<?xml version="1.0" encoding="utf-8"?>
<!-- Generator: Adobe Illustrator 18.1.1, SVG Export Plug-In . SVG Version: 6.00 Build 0)  -->
<svg version="1.1" id="Layer_1" xmlns="http://www.w3.org/2000/svg" xmlns:xlink="http://www.w3.org/1999/xlink" x="0px" y="0px"
	 viewBox="0 0 218.2 218.2" enable-background="new 0 0 218.2 218.2" xml:space="preserve">
<path d="M0,109.1c0,14.7,2.9,29,8.6,42.5c5.5,13,13.4,24.7,23.4,34.7c10,10,21.7,17.9,34.7,23.4c13.5,5.7,27.7,8.6,42.5,8.6
	c14.7,0,29-2.9,42.5-8.6c13-5.5,24.7-13.4,34.7-23.4c10-10,17.9-21.7,23.4-34.7c5.7-13.5,8.6-27.7,8.6-42.5c0-14.7-2.9-29-8.6-42.5
	c-5.5-13-13.4-24.7-23.4-34.7c-10-10-21.7-17.9-34.7-23.4C138.1,2.9,123.8,0,109.1,0c-14.7,0-29,2.9-42.5,8.6
	C53.6,14.1,42,21.9,32,32S14.1,53.6,8.6,66.6C2.9,80.1,0,94.4,0,109.1z M11.7,109.1c0-26,10.1-50.5,28.5-68.9s42.9-28.5,68.9-28.5
	c26,0,50.5,10.1,68.9,28.5s28.5,42.9,28.5,68.9c0,26-10.1,50.5-28.5,68.9s-42.9,28.5-68.9,28.5c-26,0-50.5-10.1-68.9-28.5
	S11.7,135.1,11.7,109.1z"/>
<path d="M23.3,109.1c0,47.4,38.4,85.8,85.8,85.8c47.4,0,85.8-38.4,85.8-85.8s-38.4-85.8-85.8-85.8C61.7,23.3,23.3,61.7,23.3,109.1z
	 M93.7,141.4l32.3-32.3L93.7,76.7c-1.6-1.6-1.6-4.1,0-5.6l3.1-3.1c1.6-1.6,4.1-1.6,5.6,0l41.1,41.1l-41.1,41.1
	c-1.6,1.6-4.1,1.6-5.6,0l-3.1-3.1C92.2,145.5,92.2,143,93.7,141.4z"/>
</svg>
