<svg viewBox="0 0 219 220" xmlns="http://www.w3.org/2000/svg"><g><path d="m147.1 126.1l-12.2-22.4-22.4 12.3 12.2 22.4 22.4-12.3m-28.6-52.2l-89.5 48.9 8.2 14.9 89.6-48.9-8.3-14.9m-8.9-49.5c-46 0-83.6 36.3-85.7 81.8l94-51.3c4.1-2.3 9.3-.7 11.5 3.4l36.7 67.2c2.3 4.1.7 9.3-3.4 11.5l-91.5 50c11.5 5.8 24.5 9 38.3 9 47.4 0 85.8-38.4 85.8-85.8 0-47.4-38.4-85.8-85.7-85.8"/><path d="m109.6 219.3c-14.7 0-29-2.9-42.5-8.6-13-5.5-24.7-13.4-34.7-23.4-10-10-17.9-21.7-23.4-34.7-5.7-13.5-8.6-27.7-8.6-42.5 0-14.7 2.9-29 8.6-42.5 5.5-13 13.4-24.7 23.4-34.7 10-10 21.7-17.9 34.7-23.4 13.5-5.7 27.7-8.6 42.5-8.6 14.8 0 29 2.9 42.5 8.6 13 5.5 24.7 13.4 34.7 23.4 10 10 17.9 21.7 23.4 34.7 5.7 13.5 8.6 27.7 8.6 42.5 0 14.7-2.9 29-8.6 42.5-5.5 13-13.4 24.7-23.4 34.7-10 10-21.7 17.9-34.7 23.4-13.5 5.7-27.8 8.6-42.5 8.6m0-206.5c-26 0-50.5 10.1-68.9 28.5-18.4 18.4-28.5 42.9-28.5 68.9 0 26 10.1 50.5 28.5 68.9 18.4 18.4 42.9 28.5 68.9 28.5 26 0 50.5-10.1 68.9-28.5 18.4-18.4 28.5-42.9 28.5-68.9 0-26-10.1-50.5-28.5-68.9-18.5-18.4-42.9-28.5-68.9-28.5"/></g></svg>
