<?xml version="1.0" encoding="utf-8"?>
<!-- Generator: Adobe Illustrator 19.2.0, SVG Export Plug-In . SVG Version: 6.00 Build 0)  -->
<svg version="1.1" id="Layer_1" xmlns="http://www.w3.org/2000/svg" xmlns:xlink="http://www.w3.org/1999/xlink" x="0px" y="0px"
	 viewBox="0 0 100 100" style="enable-background:new 0 0 100 100;" xml:space="preserve">
<g id="Comsumer_Icon_wht">
	<rect style="fill:none;" width="100" height="100"/>
	<path style="fill:#FFFFFF;" d="M44,21v2h12v-2H44z M20,41h60v-2H20V41z M36,29h28v-2H36V29z M82,19H72v2h10V19z M28,35h44v-2H28V35
		z M70,67h12v-2H70V67z M75,72h2v-4h-2V72z M85,39.5V21h2V11H67v10h2v6.4L50,13L9,44v43h30V57h22v30h30V48h-2v37H63V55H37v30H11V45
		l39-29.5l21,15.9V19h-2v-6h16v6h-2v21.5l6,4.5h-4H12v2h77h2v-2v-1L85,39.5z M55,75c-1.1,0-2,0.9-2,2s0.9,2,2,2s2-0.9,2-2
		S56.1,75,55,75z M43,73h14V61H43V73z M45,63h10v8H45V63z M77,60h-2v4h2V60z M18,67h12v-2H18V67z M33,75V57H15v18H33z M17,59h14v14
		H17V59z M23,72h2v-4h-2V72z M81,38.9v-2.5l-8-6v2.5L81,38.9z M85,75V57H67v18H85z M69,59h14v14H69V59z M25,60h-2v4h2V60z"/>
</g>
</svg>
