<?xml version="1.0" encoding="utf-8"?>
<!-- Generator: Adobe Illustrator 19.2.0, SVG Export Plug-In . SVG Version: 6.00 Build 0)  -->
<svg version="1.1" id="devices" xmlns="http://www.w3.org/2000/svg" xmlns:xlink="http://www.w3.org/1999/xlink" x="0px" y="0px"
	 viewBox="0 0 108 182" style="enable-background:new 0 0 108 182;" xml:space="preserve">
<g id="PHONE_2_">
	<polygon style="fill:#DFE0E0;" points="0,0 0,87.2 0,156 0,182 16,182 108,182 108,0 	"/>
	
		<linearGradient id="SVGID_1_" gradientUnits="userSpaceOnUse" x1="-39.9318" y1="109.0756" x2="97.1553" y2="-267.5682" gradientTransform="matrix(1 0 0 1 0 240)">
		<stop  offset="0" style="stop-color:#319CBF"/>
		<stop  offset="1" style="stop-color:#8DC63F"/>
	</linearGradient>
	<rect x="10" y="26" style="fill:url(#SVGID_1_);" width="88" height="130"/>
	<polygon style="opacity:0.3;fill:#FFFFFF;enable-background:new    ;" points="0,0 0,148.8 108,40.8 108,0 	"/>
	<path style="fill:#3F4041;" d="M48,169c0,3.3,2.7,6,6,6s6-2.7,6-6s-2.7-6-6-6S48,165.7,48,169z M58,169c0,2.2-1.8,4-4,4s-4-1.8-4-4
		s1.8-4,4-4S58,166.8,58,169z M46,12v2h16v-2H46z M8,155h2V26h88v130H16v2h84V24H8V155z M0,0v97.7V155h2V2h104v178H0v2h108V0H0z"/>
</g>
<path style="opacity:0.7;fill:#0F6F67;enable-background:new    ;" d="M51.7,79.1l-8.1-12.8l-16.4,43.6l16.5-7.2L51.7,79.1z
	 M75.4,89l-19-26.8H43.3l20.2,32L75.4,89z M24,113.4l12.8,8.7L77,105l7-17.7L24,113.4z"/>
</svg>
