<?xml version="1.0" encoding="utf-8"?>
<!-- Generator: Adobe Illustrator 19.2.0, SVG Export Plug-In . SVG Version: 6.00 Build 0)  -->
<svg version="1.1" id="Layer_1" xmlns="http://www.w3.org/2000/svg" xmlns:xlink="http://www.w3.org/1999/xlink" x="0px" y="0px"
	 viewBox="0 0 100 100" style="enable-background:new 0 0 100 100;" xml:space="preserve">
<g id="Doc_Icon_wht">
	<rect style="fill:none;" width="100" height="100"/>
	<path style="fill:#FFFFFF;" d="M47,15H25v2h22V15z M25,23h22v-2H25V23z M31,81v2h42v-2H31z M25,29h22v-2H25V29z M67,33H25v2h42V33z
		 M67,39H25v2h42V39z M67,45H25v2h42V45z M67,51H25v2h42V51z M67,57H25v2h42V57z M67,63H25v2h42V63z M25,71h42v-2H25V71z M75,31h-4
		v44H21V11h31.2l17,17H53V14h-2v16h23L53,9H19v68h54V33h1.2l2.8,2.8V87H27v-9h-2v11h54V35L75,31z"/>
</g>
</svg>
