<?xml version="1.0" encoding="utf-8"?>
<!-- Generator: Adobe Illustrator 18.1.1, SVG Export Plug-In . SVG Version: 6.00 Build 0)  -->
<svg version="1.1" id="Layer_1" xmlns="http://www.w3.org/2000/svg" xmlns:xlink="http://www.w3.org/1999/xlink" x="0px" y="0px"
	 viewBox="0 0 218.2 218.2" enable-background="new 0 0 218.2 218.2" xml:space="preserve">
<path d="M209.6,66.6c-5.5-13-13.4-24.7-23.4-34.7s-21.7-17.9-34.7-23.4C138.1,2.9,123.8,0,109.1,0c-14.7,0-29,2.9-42.5,8.6
	C53.6,14.1,42,21.9,32,32c-10,10-17.9,21.7-23.4,34.7C2.9,80.1,0,94.4,0,109.1c0,14.7,2.9,29,8.6,42.5c5.5,13,13.4,24.7,23.4,34.7
	c10,10,21.7,17.9,34.7,23.4c13.5,5.7,27.7,8.6,42.5,8.6c14.7,0,29-2.9,42.5-8.6c13-5.5,24.7-13.4,34.7-23.4
	c10-10,17.9-21.7,23.4-34.7c5.7-13.5,8.6-27.7,8.6-42.5C218.2,94.4,215.3,80.1,209.6,66.6z M178,178c-18.4,18.4-42.9,28.5-68.9,28.5
	c-26,0-50.5-10.1-68.9-28.5s-28.5-42.9-28.5-68.9c0-26,10.1-50.5,28.5-68.9s42.9-28.5,68.9-28.5c26,0,50.5,10.1,68.9,28.5
	s28.5,42.9,28.5,68.9C206.5,135.1,196.4,159.6,178,178z M109.1,23.3c-47.4,0-85.8,38.4-85.8,85.8s38.4,85.8,85.8,85.8
	c47.4,0,85.8-38.4,85.8-85.8S156.5,23.3,109.1,23.3z M109.1,152.3c-26.9,0-49.4-18.4-55.8-43.2c6.4-24.9,28.9-43.2,55.8-43.2
	c26.9,0,49.4,18.4,55.8,43.2C158.4,133.9,135.9,152.3,109.1,152.3z M109.1,80.3c-15.9,0-28.8,12.9-28.8,28.8
	c0,15.9,12.9,28.8,28.8,28.8c15.9,0,28.8-12.9,28.8-28.8C137.9,93.2,125,80.3,109.1,80.3z M109.1,127.1c-10,0-18-8.1-18-18
	c0-10,8.1-18,18-18c0.3,0,0.5,0.1,0.8,0.1c-0.4,1.2-0.8,2.5-0.8,3.5c0,8,6.4,14.4,14.4,14.4c1.1,0,2.3-0.3,3.5-0.8
	c0,0.3,0.1,0.5,0.1,0.8C127.1,119,119,127.1,109.1,127.1z"/>
</svg>
