<?xml version="1.0" encoding="utf-8"?>
<!-- Generator: Adobe Illustrator 19.1.0, SVG Export Plug-In . SVG Version: 6.00 Build 0)  -->
<svg version="1.1" id="Layer_1" xmlns="http://www.w3.org/2000/svg" xmlns:xlink="http://www.w3.org/1999/xlink" x="0px" y="0px"
	 viewBox="0 0 219 220" enable-background="new 0 0 219 220" xml:space="preserve">
<g>
	<rect x="60" y="76.5" width="58" height="10"/>
	<rect x="60" y="96.5" width="58" height="10"/>
	<rect x="60" y="116.5" width="98" height="10"/>
	<rect x="60" y="156.5" width="98" height="10"/>
	<rect x="60" y="136.5" width="98" height="10"/>
	<path d="M183,154.2v-37.7h5v27.9c4.5-10.4,6.9-21.9,6.9-34c-0.1-47.4-38.3-85.8-85.7-85.8c-47.4,0-85.8,38.4-85.8,85.8
		c0,24.5,10.6,46.5,26.6,62.2v-4.1v-102h78v40h40v62v4.1c1.7-1.6,3.4-3.3,5-5v-61.1h5v55.1C179.8,159.2,181.5,156.7,183,154.2z
		 M138,96.5V67l29.5,29.5H138z"/>
</g>
<path d="M109.2,219.5c-14.7,0-29-2.9-42.5-8.6c-13-5.5-24.7-13.4-34.7-23.4s-17.9-21.7-23.4-34.7C2.9,139.3,0,125.1,0,110.3
	c0-14.7,2.9-29,8.6-42.5C14.1,54.8,22,43.1,32,33.1S53.7,15.2,66.7,9.7C80.2,4,94.4,1.1,109.2,1.1s29,2.9,42.5,8.6
	c13,5.5,24.7,13.4,34.7,23.4s17.9,21.7,23.4,34.7c5.7,13.5,8.6,27.7,8.6,42.5c0,14.7-2.9,29-8.6,42.5c-5.5,13-13.4,24.7-23.4,34.7
	s-21.7,17.9-34.7,23.4C138.2,216.6,123.9,219.5,109.2,219.5z M109.2,13c-26,0-50.5,10.1-68.9,28.5s-28.5,42.9-28.5,68.9
	c0,26,10.1,50.5,28.5,68.9c18.4,18.4,42.9,28.5,68.9,28.5s50.5-10.1,68.9-28.5s28.5-42.9,28.5-68.9s-10.1-50.5-28.5-68.9
	S135.2,13,109.2,13z"/>
</svg>
