<?xml version="1.0" encoding="utf-8"?>
<!-- Generator: Adobe Illustrator 19.1.0, SVG Export Plug-In . SVG Version: 6.00 Build 0)  -->
<svg version="1.1" id="Layer_1" xmlns="http://www.w3.org/2000/svg" xmlns:xlink="http://www.w3.org/1999/xlink" x="0px" y="0px"
	 viewBox="0 0 40 40" enable-background="new 0 0 40 40" xml:space="preserve">
<g>
	<rect x="12" y="13" width="10" height="2"/>
	<rect x="12" y="21" width="16" height="2"/>
	<rect x="12" y="17" width="10" height="2"/>
	<rect x="12" y="29" width="16" height="2"/>
	<rect x="12" y="25" width="16" height="2"/>
	<path d="M33,28.9V19h1v8.3c1-2.2,1.8-4.6,1.8-7.3c0-8.7-7.1-15.8-15.8-15.8S4.2,11.3,4.2,20c0,4.9,1.8,9.3,5.8,12.2V11h14v6h6v15.2
		c0-0.3,1-0.6,1-0.9V17h1v13.2C32,29.8,33,29.4,33,28.9z M26,15v-4l4,4H26z"/>
</g>
<path fill="none" stroke="#000000" stroke-width="2" stroke-miterlimit="10" d="M20,38.8C9.7,38.8,1.3,30.3,1.3,20S9.7,1.2,20,1.2
	S38.8,9.7,38.8,20S30.3,38.8,20,38.8z"/>
</svg>
