<svg version="1.1" xmlns="http://www.w3.org/2000/svg" xmlns:xlink="http://www.w3.org/1999/xlink" x="0px" y="0px"
	viewBox="0 0 1600 1032.4" enable-background="new 0 0 1600 1032.4" xml:space="preserve" id="graph">
<g id="top-icons" >
	<g id="btn-1" class="step-1">
		<g class="ring">
			<path class="step-1-high" d="M174.5,883.7c-8.1,0-16-1.6-23.4-4.7c-7.1-3-13.6-7.3-19.1-12.9c-5.5-5.5-9.8-11.9-12.9-19.1
				c-3.1-7.4-4.7-15.3-4.7-23.4s1.6-16,4.7-23.4c3-7.1,7.3-13.6,12.9-19.1c5.5-5.5,11.9-9.8,19.1-12.9c7.4-3.1,15.3-4.7,23.4-4.7
				c8.1,0,16,1.6,23.4,4.7c7.1,3,13.6,7.3,19.1,12.9c5.5,5.5,9.8,11.9,12.9,19.1c3.1,7.4,4.7,15.3,4.7,23.4s-1.6,16-4.7,23.4
				c-3,7.1-7.3,13.6-12.9,19.1c-5.5,5.5-11.9,9.8-19.1,12.9C190.4,882.1,182.6,883.7,174.5,883.7z M174.5,770.1
				c-14.3,0-27.8,5.6-37.9,15.7c-10.1,10.1-15.7,23.6-15.7,37.9s5.6,27.8,15.7,37.9c10.1,10.1,23.6,15.7,37.9,15.7
				s27.8-5.6,37.9-15.7c10.1-10.1,15.7-23.6,15.7-37.9s-5.6-27.8-15.7-37.9C202.2,775.7,188.8,770.1,174.5,770.1z"/>
				<polygon fill="#A6D7EA" points="163.5,881.8 174.5,892.7 185.5,881.8 		"/>
		</g>
		<g>
			<path class="step-1-high" d="M195.1,832.5l-6.7-12.3l-12.3,6.7l6.7,12.3L195.1,832.5z M179.4,803.7l-49.3,26.9l4.5,8.2l49.3-26.9
				L179.4,803.7z M174.5,776.5c-25.3,0-46,19.9-47.1,45l51.7-28.2c2.3-1.2,5.1-0.4,6.3,1.9l20.2,37c1.2,2.3,0.4,5.1-1.9,6.3
				l-50.3,27.5c6.3,3.2,13.5,5,21.1,5c26.1,0,47.2-21.1,47.2-47.2C221.7,797.7,200.5,776.5,174.5,776.5z"/>
			<rect x="110" y="765" width="130" height="130" fill="#ff0000" fill-opacity="0.0" />
		</g>

	</g>
	<g id="btn-2" class="step-2">
		<g class="ring">
			<path class="step-2-high" d="M424.7,790.9c-8.1,0-16-1.6-23.4-4.7c-7.1-3-13.6-7.3-19.1-12.9c-5.5-5.5-9.8-11.9-12.9-19.1
				c-3.1-7.4-4.7-15.3-4.7-23.4s1.6-16,4.7-23.4c3-7.1,7.3-13.6,12.9-19.1c5.5-5.5,11.9-9.8,19.1-12.9c7.4-3.1,15.3-4.7,23.4-4.7
				c8.1,0,16,1.6,23.4,4.7c7.1,3,13.6,7.3,19.1,12.9c5.5,5.5,9.8,11.9,12.9,19.1c3.1,7.4,4.7,15.3,4.7,23.4s-1.6,16-4.7,23.4
				c-3,7.1-7.3,13.6-12.9,19.1c-5.5,5.5-11.9,9.8-19.1,12.9C440.7,789.3,432.8,790.9,424.7,790.9z M424.7,677.3
				c-14.3,0-27.8,5.6-37.9,15.7c-10.1,10.1-15.7,23.6-15.7,37.9s5.6,27.8,15.7,37.9c10.1,10.1,23.6,15.7,37.9,15.7
				c14.3,0,27.8-5.6,37.9-15.7c10.1-10.1,15.7-23.6,15.7-37.9s-5.6-27.8-15.7-37.9S439,677.3,424.7,677.3z"/>
				<polygon fill="#2F9BC2" points="413.7,788.9 424.7,799.9 435.7,788.9 		"/>
		</g>
		<g>
			<path class="step-2-high" d="M394.8,757.1c8.9-2.7,6.3-10.2,6.3-10.2c-2.1-3-3.8-4.9-5-8.9c0,0,0,0-0.1,0c-4.5,0-7-13.4-1.3-13.4
				c1-10.2,7.2-17.9,14.7-17.9c7.6,0,13.8,7.7,14.7,17.9c5.7,0,3.2,13.4-1.3,13.4c0,0,0,0-0.1,0c-1.1,4.1-2.9,6-5,8.9
				c0,0,0.4,9.6,11.3,12.6c4.2,1.2,7.2,5,7.2,9.4v7.8c2.3-0.6,4.5-1.3,6.7-2.2v-5.5c0-7.4-5-13.9-12.1-15.9
				c-0.3-0.1-0.6-0.2-0.9-0.4c-2.9-2.8-3.1-6.7-1.9-9.6c3.9-2.7,6.1-8.2,6.1-13.6c0-2.7-0.6-5-1.7-6.9c-0.4-0.8-1-1.4-1.6-2
				c2.6-3.1,6-5,9.8-5c7.6,0,13.8,7.7,14.8,17.9c2.2,0,3.2,2,3.3,4.5h-0.1v2.2c-0.5,3.4-2.2,6.8-4.5,6.8c0,0,0,0-0.1,0
				c-1.2,4.1-2.9,6-5,8.9c0,0-2.6,7.6,6.5,10.2c0.1,0,0.3,0.1,0.4,0.1c9.8-8.6,15.9-21.3,15.9-35.3c0-26.1-21.1-47.2-47.2-47.2
				c-26.1,0-47.2,21.1-47.2,47.2c0,11.7,4.3,22.4,11.3,30.7C390.2,759.4,392.3,757.8,394.8,757.1z"/>
				<rect x="360" y="665" width="130" height="130" fill="#ff0000" fill-opacity="0.0"  />
		</g>

	</g>
	<g id="btn-3" class="step-3">
		<g class="ring">
			<path class="step-3-high" d="M674.9,668.2c-8.1,0-16-1.6-23.4-4.7c-7.1-3-13.6-7.3-19.1-12.9c-5.5-5.5-9.8-11.9-12.9-19.1
				c-3.1-7.4-4.7-15.3-4.7-23.4s1.6-16,4.7-23.4c3-7.1,7.3-13.6,12.9-19.1c5.5-5.5,11.9-9.8,19.1-12.9c7.4-3.1,15.3-4.7,23.4-4.7
				s16,1.6,23.4,4.7c7.1,3,13.6,7.3,19.1,12.9c5.5,5.5,9.8,11.9,12.9,19.1c3.1,7.4,4.7,15.3,4.7,23.4s-1.6,16-4.7,23.4
				c-3,7.1-7.3,13.6-12.9,19.1c-5.5,5.5-11.9,9.8-19.1,12.9C690.9,666.6,683,668.2,674.9,668.2z M674.9,554.6
				c-14.3,0-27.8,5.6-37.9,15.7c-10.1,10.1-15.7,23.6-15.7,37.9s5.6,27.8,15.7,37.9c10.1,10.1,23.6,15.7,37.9,15.7
				s27.8-5.6,37.9-15.7c10.1-10.1,15.7-23.6,15.7-37.9s-5.6-27.8-15.7-37.9S689.2,554.6,674.9,554.6z"/>
				<polygon fill="#145A7D" points="663.9,666.2 674.9,677.2 685.9,666.2 		"/>
			</g>
		<g>

				<path class="step-3-high" d="M714.1,592.3h-41.4v8.3h41.4V592.3z M672.7,617h41.4v-8.3h-41.4V617z M693.3,629.4l-20.6,16.5v-16.5h-8.3
					c-2.3,0-4.1-1.8-4.1-4.1V584c0-2.3,1.8-4.1,4.1-4.1h48.2c-8.6-11.4-22.3-18.8-37.7-18.8c-26.1,0-47.2,21.1-47.2,47.2
					s21.1,47.2,47.2,47.2c18.4,0,34.4-10.6,42.2-26H693.3z"/>
					<rect x="610" y="545" width="130" height="130" fill="#ff0000" fill-opacity="0.0"  />
		</g>

	</g>
	<g id="btn-4" class="step-4">
		<g class="ring">

				<path class="step-4-high" d="M925.1,408.2c-26.1,0-47.2,21.1-47.2,47.2c0,8.6,2.3,16.7,6.3,23.6h11.5v-23.5h23.5v-11.7h-11.7V432h35.2
					v11.7H931v11.7h23.5V479h11.5c4-6.9,6.3-15,6.3-23.6C972.3,429.3,951.2,408.2,925.1,408.2z M942.7,499.1c4.3-1.7,8.2-4,11.7-6.9
					v-1.5h-11.7V499.1z M895.7,492.3c3.5,2.8,7.5,5.1,11.7,6.9v-8.4h-11.7V492.3z M942.7,467.2h-35.2V479h11.7v23.2
					c1.9,0.2,3.9,0.4,5.9,0.4c2,0,3.9-0.1,5.9-0.4V479h11.7V467.2z"/>
				<polygon fill="#0F6F67" points="914.1,513.4 925.1,524.4 936.1,513.4 		"/>
		</g>
		<path class="step-4-high" d="M925.1,515.4c-8.1,0-16-1.6-23.4-4.7c-7.1-3-13.6-7.3-19.1-12.9c-5.5-5.5-9.8-11.9-12.9-19.1
			c-3.1-7.4-4.7-15.3-4.7-23.4s1.6-16,4.7-23.4c3-7.1,7.3-13.6,12.9-19.1c5.5-5.5,11.9-9.8,19.1-12.9c7.4-3.1,15.3-4.7,23.4-4.7
			s16,1.6,23.4,4.7c7.1,3,13.6,7.3,19.1,12.9s9.8,11.9,12.9,19.1c3.1,7.4,4.7,15.3,4.7,23.4s-1.6,16-4.7,23.4
			c-3,7.1-7.3,13.6-12.9,19.1s-11.9,9.8-19.1,12.9C941.1,513.8,933.2,515.4,925.1,515.4z M925.1,401.8c-14.3,0-27.8,5.6-37.9,15.7
			c-10.1,10.1-15.7,23.6-15.7,37.9s5.6,27.8,15.7,37.9c10.1,10.1,23.6,15.7,37.9,15.7s27.8-5.6,37.9-15.7
			c10.1-10.1,15.7-23.6,15.7-37.9s-5.6-27.8-15.7-37.9C952.9,407.3,939.4,401.8,925.1,401.8z"/>
			<rect x="860" y="390" width="130" height="130" fill="#ff0000" fill-opacity="0.0"  />
	</g>
	<g id="btn-5" class="step-5">
			<g>
				<path class="step-5-high" d="M1140.9,252.4h68.2v52.7c8.3-8.5,13.4-20.1,13.4-32.9c0-26.1-21.1-47.2-47.2-47.2s-47.2,21.1-47.2,47.2
					c0,12.5,4.9,23.9,12.8,32.3V252.4z"/>
				<path class="step-5-high" d="M1149.5,311.7c0.2,0.1,0.4,0.3,0.6,0.4h50.5c0,0,0,0,0.1,0v-42.6h-51.1V311.7z M1162.2,286.5h8.5V278
					h8.5v8.5h8.5v8.5h-8.5v8.5h-8.5V295h-8.5V286.5z"/>
			</g>
			<g class="ring">
				<path class="step-5-high" d="M1175.3,332.2c-8.1,0-16-1.6-23.4-4.7c-7.1-3-13.6-7.3-19.1-12.9c-5.5-5.5-9.8-11.9-12.9-19.1
				c-3.1-7.4-4.7-15.3-4.7-23.4s1.6-16,4.7-23.4c3-7.1,7.3-13.6,12.9-19.1c5.5-5.5,11.9-9.8,19.1-12.9c7.4-3.1,15.3-4.7,23.4-4.7
				s16,1.6,23.4,4.7c7.1,3,13.6,7.3,19.1,12.9c5.5,5.5,9.8,11.9,12.9,19.1c3.1,7.4,4.7,15.3,4.7,23.4s-1.6,16-4.7,23.4
				c-3,7.1-7.3,13.6-12.9,19.1c-5.5,5.5-11.9,9.8-19.1,12.9C1191.3,330.6,1183.4,332.2,1175.3,332.2z M1175.3,218.6
				c-14.3,0-27.8,5.6-37.9,15.7c-10.1,10.1-15.7,23.6-15.7,37.9s5.6,27.8,15.7,37.9c10.1,10.1,23.6,15.7,37.9,15.7
				s27.8-5.6,37.9-15.7c10.1-10.1,15.7-23.6,15.7-37.9s-5.6-27.8-15.7-37.9C1203.1,224.2,1189.6,218.6,1175.3,218.6z"/>
				<polygon fill="#64A62E" points="1164.1,330.3 1175,341.2 1186,330.3 		"/>
		</g>
		<rect x="1110" y="208" width="130" height="130" fill="#ff0000" fill-opacity="0.0"  />
	</g>
	<g id="btn-6" class="step-6">
		<g class="ring">
			<path class="step-6-high" d="M1425.5,120c-8.1,0-16-1.6-23.4-4.7c-7.1-3-13.6-7.3-19.1-12.9c-5.5-5.5-9.8-11.9-12.9-19.1
				c-3.1-7.4-4.7-15.3-4.7-23.4s1.6-16,4.7-23.4c3-7.1,7.3-13.6,12.9-19.1c5.5-5.5,11.9-9.8,19.1-12.9c7.4-3.1,15.3-4.7,23.4-4.7
				c8.1,0,16,1.6,23.4,4.7c7.1,3,13.6,7.3,19.1,12.9c5.5,5.5,9.8,11.9,12.9,19.1c3.1,7.4,4.7,15.3,4.7,23.4s-1.6,16-4.7,23.4
				c-3,7.1-7.3,13.6-12.9,19.1c-5.5,5.5-11.9,9.8-19.1,12.9C1441.5,118.4,1433.6,120,1425.5,120z M1425.5,6.4
				c-14.3,0-27.8,5.6-37.9,15.7c-10.1,10.1-15.7,23.6-15.7,37.9s5.6,27.8,15.7,37.9c10.1,10.1,23.6,15.7,37.9,15.7
				s27.8-5.6,37.9-15.7s15.7-23.6,15.7-37.9s-5.6-27.8-15.7-37.9S1439.8,6.4,1425.5,6.4z"/>
				<polygon class="step-6-high" points="1414.5,118 1425.5,129 1436.5,118 		"/>
			</g>
			<g>
				<path class="step-6-high" d="M1425.5,12.8c-26.1,0-47.2,21.1-47.2,47.2c0,13.5,5.6,25.6,14.7,34.2v-12c2.2,0.8,4.5,1.2,7,1.2
					c2.4,0,4.8-0.4,7-1.2v14.5h37.1V82.2c2.2,0.8,4.5,1.2,7,1.2c2.4,0,4.8-0.4,7-1.2v12c9-8.6,14.7-20.7,14.7-34.2
					C1472.7,33.9,1451.6,12.8,1425.5,12.8z M1451,72.9c-4.4,0-8.3-2.5-10.2-6.1c-2.2,6.3-8.2,10.8-15.3,10.8c-7,0-13-4.5-15.3-10.8
					c-2,3.6-5.8,6.1-10.2,6.1c-6.4,0-11.6-5.2-11.6-11.6l7.7-21.2c0.9-2.4,3.7-4.3,6.2-4.3h46.4c2.5,0,5.4,1.9,6.2,4.3l7.7,21.2
					C1462.6,67.7,1457.4,72.9,1451,72.9z"/>
			</g>
			<rect x="1360" y="0" width="130" height="130" fill="#ff0000"  fill-opacity="0.0" />
	</g>
</g>
<g id="bars">
	<g id="col-1">
		<g class="step-1">
			<path class="step-1-low" d="M264,961.4H85v-52c0-3.3,2.7-6,6-6h167c3.3,0,6,2.7,6,6V961.4z"/>
			<polygon class="step-1-high" points="264,961.4 85,961.4 85,909.4 			"/>
		</g>
	</g>
	<g id="col-2">
		<g class="step-1">
			<path class="step-1-low" d="M514.2,961.4h-179v-82c0-3.3,2.7-6,6-6h167c3.3,0,6,2.7,6,6V961.4z"/>
			<polygon class="step-1-high" points="514.2,961.4 335.2,961.4 335.2,879.4 			"/>
		</g>
		<g class="step-2">
			<path class="step-2-low" d="M508.2,868.4h-167c-3.3,0-6-2.7-6-6v-46c0-3.3,2.7-6,6-6h167c3.3,0,6,2.7,6,6v46
				C514.2,865.7,511.5,868.4,508.2,868.4z"/>
			<path class="step-2-high" d="M508.2,868.4h-167c-3.3,0-6-2.7-6-6v-46L508.2,868.4z"/>
		</g>
	</g>
	<g id="col-3">
		<g class="step-1">
			<path class="step-1-low" d="M764.4,961.4h-179v-112c0-3.3,2.7-6,6-6h167c3.3,0,6,2.7,6,6V961.4z"/>
			<polygon class="step-1-high" points="764.4,961.4 585.4,961.4 585.4,849.4 			"/>
		</g>
		<g class="step-2">
			<path class="step-2-low" d="M758.4,838.4h-167c-3.3,0-6-2.7-6-6v-76c0-3.3,2.7-6,6-6h167c3.3,0,6,2.7,6,6v76
				C764.4,835.7,761.7,838.4,758.4,838.4z"/>
			<path class="step-2-high" d="M758.4,838.4h-167c-3.3,0-6-2.7-6-6v-76L758.4,838.4z"/>
		</g>
		<g class="step-3">
			<path class="step-3-low" d="M758.4,745.4h-167c-3.3,0-6-2.7-6-6v-46c0-3.3,2.7-6,6-6h167c3.3,0,6,2.7,6,6v46
				C764.4,742.7,761.7,745.4,758.4,745.4z"/>
			<path class="step-3-high" d="M758.4,745.4h-167c-3.3,0-6-2.7-6-6v-46L758.4,745.4z"/>
		</g>
	</g>
	<g id="col-4">
		<g class="step-1">
			<path class="step-1-low" d="M1014.6,961.4h-179v-142c0-3.3,2.7-6,6-6h167c3.3,0,6,2.7,6,6V961.4z"/>
			<polygon class="step-1-high" points="1014.6,961.4 835.6,961.4 835.6,819.4 			"/>
		</g>
		<g class="step-2">
			<path class="step-2-low" d="M1008.6,808.4h-167c-3.3,0-6-2.7-6-6v-106c0-3.3,2.7-6,6-6h167c3.3,0,6,2.7,6,6v106
				C1014.6,805.7,1011.9,808.4,1008.6,808.4z"/>
			<path class="step-2-high" d="M1008.6,808.4h-167c-3.3,0-6-2.7-6-6v-106L1008.6,808.4z"/>
		</g>
		<g class="step-3">
			<path class="step-3-low" d="M1008.6,685.4h-167c-3.3,0-6-2.7-6-6v-76c0-3.3,2.7-6,6-6h167c3.3,0,6,2.7,6,6v76
				C1014.6,682.7,1011.9,685.4,1008.6,685.4z"/>
			<path class="step-3-high" d="M1008.6,685.4h-167c-3.3,0-6-2.7-6-6v-76L1008.6,685.4z"/>
		</g>
		<g class="step-4">
			<path class="step-4-low" d="M1008.6,592.4h-167c-3.3,0-6-2.7-6-6v-46c0-3.3,2.7-6,6-6h167c3.3,0,6,2.7,6,6v46
				C1014.6,589.7,1011.9,592.4,1008.6,592.4z"/>
			<path class="step-4-high" d="M1008.6,592.4h-167c-3.3,0-6-2.7-6-6v-46L1008.6,592.4z"/>
		</g>
	</g>
	<g id="col-5">
		<g class="step-1">
			<path class="step-1-low" d="M1264.8,961.4h-179v-172c0-3.3,2.7-6,6-6h167c3.3,0,6,2.7,6,6V961.4z"/>
			<polygon class="step-1-high" points="1264.8,961.4 1085.8,961.4 1085.8,789.4 			"/>
		</g>
		<g class="step-2">
			<path class="step-2-low" d="M1258.8,778.4h-167c-3.3,0-6-2.7-6-6v-136c0-3.3,2.7-6,6-6h167c3.3,0,6,2.7,6,6v136
				C1264.8,775.7,1262.1,778.4,1258.8,778.4z"/>
			<path class="step-2-high" d="M1258.8,778.4h-167c-3.3,0-6-2.7-6-6v-136L1258.8,778.4z"/>
		</g>
		<g class="step-3">
			<path class="step-3-low" d="M1258.8,625.4h-167c-3.3,0-6-2.7-6-6v-106c0-3.3,2.7-6,6-6h167c3.3,0,6,2.7,6,6v106
				C1264.8,622.7,1262.1,625.4,1258.8,625.4z"/>
			<path class="step-3-high" d="M1258.8,625.4h-167c-3.3,0-6-2.7-6-6v-106L1258.8,625.4z"/>
		</g>
		<g class="step-4">
			<path class="step-4-low" d="M1258.8,502.4h-167c-3.3,0-6-2.7-6-6v-76c0-3.3,2.7-6,6-6h167c3.3,0,6,2.7,6,6v76
				C1264.8,499.7,1262.1,502.4,1258.8,502.4z"/>
			<path class="step-4-high" d="M1258.8,502.4h-167c-3.3,0-6-2.7-6-6v-76L1258.8,502.4z"/>
		</g>
		<g class="step-5">
			<path class="step-5-low" d="M1258.8,409.4h-167c-3.3,0-6-2.7-6-6v-46c0-3.3,2.7-6,6-6h167c3.3,0,6,2.7,6,6v46
				C1264.8,406.7,1262.1,409.4,1258.8,409.4z"/>
				<path class="step-5-high" d="M1258.8,409.4h-167c-3.3,0-6-2.7-6-6v-46L1258.8,409.4z"/>
		</g>
	</g>
	<g id="col-6">
		<g class="step-1">
			<path class="step-1-low" d="M1515,961.4h-179v-202c0-3.3,2.7-6,6-6h167c3.3,0,6,2.7,6,6V961.4z"/>
			<polygon class="step-1-high" points="1515,961.4 1336,961.4 1336,759.4 			"/>
		</g>
		<g class="step-2">
			<path class="step-2-low" d="M1509,748.4h-167c-3.3,0-6-2.7-6-6v-166c0-3.3,2.7-6,6-6h167c3.3,0,6,2.7,6,6v166
				C1515,745.7,1512.3,748.4,1509,748.4z"/>
			<path class="step-2-high" d="M1509,748.4h-167c-3.3,0-6-2.7-6-6v-166L1509,748.4z"/>
		</g>
		<g class="step-3">
			<path class="step-3-low" d="M1509,565.4h-167c-3.3,0-6-2.7-6-6v-136c0-3.3,2.7-6,6-6h167c3.3,0,6,2.7,6,6v136
				C1515,562.7,1512.3,565.4,1509,565.4z"/>
			<path class="step-3-high" d="M1509,565.4h-167c-3.3,0-6-2.7-6-6v-136L1509,565.4z"/>
		</g>
		<g class="step-4">
			<path class="step-4-low" d="M1509,412.4h-167c-3.3,0-6-2.7-6-6v-106c0-3.3,2.7-6,6-6h167c3.3,0,6,2.7,6,6v106
				C1515,409.7,1512.3,412.4,1509,412.4z"/>
			<path class="step-4-high" d="M1509,412.4h-167c-3.3,0-6-2.7-6-6v-106L1509,412.4z"/>
		</g>
		<g class="step-5">
			<path class="step-5-low" d="M1509,289.4h-167c-3.3,0-6-2.7-6-6v-76c0-3.3,2.7-6,6-6h167c3.3,0,6,2.7,6,6v76
				C1515,286.7,1512.3,289.4,1509,289.4z"/>
			<path class="step-5-high" d="M1509,289.4h-167c-3.3,0-6-2.7-6-6v-76L1509,289.4z"/>
		</g>
		<g class="step-6">
			<path class="step-6-low" d="M1509,196.4h-167c-3.3,0-6-2.7-6-6v-46c0-3.3,2.7-6,6-6h167c3.3,0,6,2.7,6,6v46
				C1515,193.7,1512.3,196.4,1509,196.4z"/>
			<path class="step-6-high" d="M1509,196.4h-167c-3.3,0-6-2.7-6-6v-46L1509,196.4z"/>
		</g>
	</g>

</g>
<g id="bottom">
	<path fill="#E3E6E6" d="M1591.5,979.4H8.5c-4.7,0-8.5-3.8-8.5-8.5v-8.5h1600v8.5C1600,975.5,1596.2,979.4,1591.5,979.4z"/>
	<rect y="961.4" fill="#ADAEAF" width="1600" height="2"/>
</g>
</svg>
