<?xml version="1.0" encoding="utf-8"?>
<!-- Generator: Adobe Illustrator 19.2.1, SVG Export Plug-In . SVG Version: 6.00 Build 0)  -->
<svg version="1.1" id="Layer_3" xmlns="http://www.w3.org/2000/svg" xmlns:xlink="http://www.w3.org/1999/xlink" x="0px" y="0px"
	 viewBox="0 0 50 50" style="enable-background:new 0 0 50 50;" xml:space="preserve">
<g id="Reseller_Icon_2_">
	<g>
		<polygon style="fill:#3F4041;" points="40.6,9.4 34,7 34,6 34,4 31,4 16,4 16,7 9.4,9.4 1.7,19.4 9.5,27.2 12,24.7 12,40 18,46 
			24.4,40 25.6,40 32,46 38,40 38,24.7 40.5,27.2 48.3,19.4 		"/>
		<polygon style="opacity:0.1;fill:#FFFFFF;enable-background:new    ;" points="41.5,10.5 40.6,9.4 34,7 34,6 34,4 31,4 16,4 16,7 
			9.4,9.4 1.7,19.4 9.5,27.2 12,24.7 12,40 		"/>
	</g>
	<g>
		<path style="fill:#237491;" d="M25,13.7l1.6,1.6L25,16.9l-1.6-1.6L25,13.7z M25,32.1l-2-1.3l1-11.2l0.4-0.5l0.7,0.7l0.7-0.7
			l0.4,0.5L27,30.8L25,32.1z"/>
		<path style="opacity:0.1;fill:#FFFFFF;enable-background:new    ;" d="M26.6,15.3L25,13.7l-1.6,1.6l1.6,1.6L26.6,15.3z M25.7,19.1
			L25,19.7L24.3,19L24,19.6l-0.8,9.2l3.3-3.3L26,19.6L25.7,19.1z"/>
	</g>
	<path style="fill:#FFFFFF;" d="M6.3,19l3,3l1.4-1.4l-3-3L6.3,19z M25,10.9l-4.4,4.4l2.4,2.4l-0.9,1l-1.1,13l4,2.8l4-2.8l-1.1-13
		l-0.9-1l2.4-2.4L25,10.9z M25,13.7l1.6,1.6L25,16.9l-1.6-1.6L25,13.7z M25,32.1l-2-1.3l1-11.2l0.4-0.5l0.7,0.7l0.7-0.7l0.4,0.5
		L27,30.8L25,32.1z M43.7,19l-1.4-1.4l-3,3l1.4,1.4L43.7,19z M40.6,9.4L34,7l-4.1,3.8L27,8h-4l-2.9,2.8l-1.4-1.3L17.2,11l2.7,2.5
		l3.8-3.5h2.7l3.8,3.5l4.4-4.1l4.9,1.8l6.3,8.1l-5.2,5.2L36,19.9v19.3l-4.1,4.1L26.4,38h-2.7l-5.5,5.3L14,39.2V19.9l-4.5,4.5
		l-5.2-5.2l6.3-8.1L18,8.4V6h16V4H16v3L9.4,9.4l-7.7,10l7.8,7.8l2.5-2.5V40l6,6l6.4-6h1.3l6.4,6l6-6V24.7l2.5,2.5l7.8-7.8L40.6,9.4z
		 M24,37h2v-2h-2V37z"/>
</g>
</svg>
