<?xml version="1.0" encoding="utf-8"?>
<!-- Generator: Adobe Illustrator 19.2.1, SVG Export Plug-In . SVG Version: 6.00 Build 0)  -->
<!DOCTYPE svg PUBLIC "-//W3C//DTD SVG 1.1//EN" "http://www.w3.org/Graphics/SVG/1.1/DTD/svg11.dtd">
<svg version="1.1" id="Layer_3" xmlns="http://www.w3.org/2000/svg" xmlns:xlink="http://www.w3.org/1999/xlink" x="0px" y="0px"
	 viewBox="0 0 50 50" style="enable-background:new 0 0 50 50;" xml:space="preserve">
<g id="News_Icon_1_">
	<rect style="fill:none;" width="50" height="50"/>
	<g>
		<polygon style="fill:#DFE0E0;" points="42,17 42,16 32,6 4,6 4,40 6,40 6,45 46,45 46,17 		"/>
		<polygon style="fill:#EFEFEF;" points="32,6 4,6 4,40 35,9 		"/>
	</g>
	<g>
		<path style="fill:#A6D7EA;" d="M26,34H10V20h16V34z"/>
		<polygon style="fill:#D3EBF4;" points="10,20 10,34 24,20 		"/>
	</g>
	<path style="fill:#3F4041;" d="M38,26h-8v2h8V26z M38,30h-8v2h8V30z M40,17v21H6V8h25.2l6,6H32v-4h-2v6h12L32,6H4v34h38V19h2v24H8
		v-2H6v4h40V17H40z M30,36h8v-2h-8V36z M38,22h-8v2h8V22z M38,18h-8v2h8V18z M8,36h20V18H8V36z M10,20h16v14H10V20z M28,10H8v6h20
		V10z M26,14H10v-2h16V14z"/>
</g>
</svg>
