<?xml version="1.0" encoding="utf-8"?>
<!-- Generator: Adobe Illustrator 19.2.1, SVG Export Plug-In . SVG Version: 6.00 Build 0)  -->
<svg version="1.1" id="Layer_3" xmlns="http://www.w3.org/2000/svg" xmlns:xlink="http://www.w3.org/1999/xlink" x="0px" y="0px"
	 viewBox="0 0 50 50" style="enable-background:new 0 0 50 50;" xml:space="preserve">
<g id="Doc_Icon_2_">
	<polygon style="fill:#237491;" points="37,17 37,38 13,38 13,39 15,39 15,44 39,44 39,17 	"/>
	<g>
		<polygon style="fill:#3F4041;" points="27,4 9,4 9,38 37,38 37,14 		"/>
		<polygon style="opacity:0.1;fill:#FFFFFF;enable-background:new    ;" points="27,4 9,4 9,38 35,12 		"/>
	</g>
	<path style="fill:#FFFFFF;" d="M33,24H13v2h20V24z M13,34h20v-2H13V34z M33,28H13v2h20V28z M17,40v2h20v-2H17z M13,14h10v-2H13V14z
		 M33,20H13v2h20V20z M23,8H13v2h10V8z M33,16H13v2h20V16z M35,15v21H11V6h15.2l6,6H27V8h-2v6h12L27,4H9v34h28V17h2v27H15v-5h-2v7
		h28V15H35z"/>
</g>
</svg>
