<?xml version="1.0" encoding="utf-8"?>
<!-- Generator: Adobe Illustrator 19.2.1, SVG Export Plug-In . SVG Version: 6.00 Build 0)  -->
<svg version="1.1" id="Layer_3" xmlns="http://www.w3.org/2000/svg" xmlns:xlink="http://www.w3.org/1999/xlink" x="0px" y="0px"
	 viewBox="0 0 50 50" style="enable-background:new 0 0 50 50;" xml:space="preserve">
<g>
	<path style="fill:#3F4041;" d="M38,1H26.6l-26,26L23,49.4l26-26V12L38,1z M37,16c-1.7,0-3-1.3-3-3s1.3-3,3-3s3,1.3,3,3
		S38.7,16,37,16z"/>
	<path style="opacity:0.1;fill:#FFFFFF;enable-background:new    ;" d="M34.9,15.1C34.3,14.6,34,13.8,34,13c0-1.7,1.3-3,3-3
		c0.8,0,1.6,0.3,2.1,0.9l4.4-4.4L38,1H26.6l-26,26l11.2,11.2L34.9,15.1z"/>
	<g>
		<polygon style="fill:#237491;" points="26,27.7 21.6,30 22.4,25.1 18.9,21.6 23.8,20.9 26,16.4 28.2,20.9 33.1,21.6 29.6,25.1 
			30.4,30 		"/>
		<polygon style="opacity:0.1;fill:#FFFFFF;enable-background:new    ;" points="29,21 28.2,20.9 26,16.4 23.8,20.9 18.9,21.6 
			22.4,25.1 21.9,28.1 		"/>
		<g>
			<path style="fill:#FFFFFF;" d="M31.7,31.8l-5.7-3l-5.7,3l1.1-6.4l-4.6-4.5l6.4-0.9l2.9-5.8L29,20l6.4,0.9l-4.6,4.5L31.7,31.8z
				 M26,26.5l3.1,1.6l-0.6-3.4l2.5-2.4l-3.4-0.5L26,18.7l-1.5,3.1L21,22.3l2.5,2.4l-0.6,3.4L26,26.5z"/>
		</g>
	</g>
	<g>
		<path style="fill:#FFFFFF;" d="M37,17c-2.2,0-4-1.8-4-4s1.8-4,4-4s4,1.8,4,4S39.2,17,37,17z M37,11c-1.1,0-2,0.9-2,2s0.9,2,2,2
			s2-0.9,2-2S38.1,11,37,11z"/>
	</g>
	<polygon style="fill:#FFFFFF;" points="38.4,1 26.6,1 0.6,27 20.9,47.4 22.4,45.9 3.4,27 27.4,3 37.6,3 47,12.4 47,22.6 21.6,48.1 
		23,49.4 49,23.4 49,11.6 	"/>
</g>
</svg>
