<?xml version="1.0" encoding="utf-8"?>
<!-- Generator: Adobe Illustrator 19.1.0, SVG Export Plug-In . SVG Version: 6.00 Build 0)  -->
<svg version="1.1" id="Layer_3" xmlns="http://www.w3.org/2000/svg" xmlns:xlink="http://www.w3.org/1999/xlink" x="0px" y="0px"
	 viewBox="0 0 50 50" style="enable-background:new 0 0 50 50;" xml:space="preserve">
<style type="text/css">
	.st0{fill:none;}
	.st1{fill:#3F4041;}
	.st2{opacity:0.1;fill:#FFFFFF;}
	.st3{fill:#237491;}
	.st4{fill:#FFFFFF;}
</style>
<g id="App_Icon_2_">
	<rect class="st0" width="50" height="50"/>
	<g>
		<polygon class="st1" points="38,9 38,6 6,6 6,38 9,38 9,44 44,44 44,9 		"/>
		<polygon class="st2" points="6,6 38,6 6,38 		"/>
	</g>
	<g>
		<polygon class="st3" points="23.5,19.8 22,16.7 20.5,19.8 17,20.3 19.5,22.7 18.9,26.1 22,24.5 25.1,26.1 24.5,22.7 27,20.3 		"/>
		<polygon class="st2" points="24.1,19.9 23.5,19.8 22,16.7 20.5,19.8 17,20.3 19.5,22.7 19.2,24.8 		"/>
	</g>
	<path class="st4" d="M36,9v27H8V8h30V6H6v32h32V11h4v31H11v-3H9v5h35V9H36z M24.9,18L22,12.2L19.1,18l-6.4,0.9l4.6,4.5l-1.1,6.4
		l5.7-3l5.7,3l-1.1-6.4l4.6-4.5L24.9,18z M25.1,26.1L22,24.5l-3.1,1.6l0.6-3.4L17,20.3l3.4-0.5l1.5-3.1l1.5,3.1l3.4,0.5l-2.5,2.4
		L25.1,26.1z"/>
</g>
</svg>
