<?xml version="1.0" encoding="utf-8"?>
<!-- Generator: Adobe Illustrator 19.1.0, SVG Export Plug-In . SVG Version: 6.00 Build 0)  -->
<svg version="1.1" id="Layer_1" xmlns="http://www.w3.org/2000/svg" xmlns:xlink="http://www.w3.org/1999/xlink" x="0px" y="0px"
	 viewBox="0 0 40 40" style="enable-background:new 0 0 40 40;" xml:space="preserve">
<style type="text/css">
	.st0{fill:none;}
</style>
<path class="st0" d="M20,2.1c-9.9,0-17.9,8-17.9,17.9c0,9.9,8,17.9,17.9,17.9s17.9-8,17.9-17.9C37.9,10.1,29.9,2.1,20,2.1z M20,35.7
	c-8.7,0-15.7-7-15.7-15.7c0-8.7,7-15.7,15.7-15.7c8.7,0,15.7,7,15.7,15.7C35.7,28.7,28.7,35.7,20,35.7z"/>
<path d="M20,0C9,0,0,9,0,20c0,11,9,20,20,20s20-9,20-20C40,9,31,0,20,0z M20,38c-9.9,0-18-8.1-18-18c0-9.9,8.1-18,18-18
	s18,8.1,18,18C38,29.9,29.9,38,20,38z M20,4C11.2,4,4,11.2,4,20c0,8.8,7.2,16,16,16c8.8,0,16-7.2,16-16C36,11.2,28.8,4,20,4z"/>
</svg>
