<?xml version="1.0" encoding="utf-8"?>
<!-- Generator: Adobe Illustrator 18.1.1, SVG Export Plug-In . SVG Version: 6.00 Build 0)  -->
<svg version="1.1" id="Layer_1" xmlns="http://www.w3.org/2000/svg" xmlns:xlink="http://www.w3.org/1999/xlink" x="0px" y="0px"
	 viewBox="0 0 112.2 113.5" enable-background="new 0 0 112.2 113.5" xml:space="preserve">
<path id="Shape_3_" d="M91.6,81.5c-28.4,0-22.2-17.7-22.2-17.7c3.4-4.7,6.1-7.7,7.9-14.1c0,0,0.1,0,0.1,0c7.1,0,11.1-21.3,2.1-21.3
	C78,12.2,68.2,0,56.2,0c-12,0-21.8,12.2-23.3,28.4c-9.1,0-5,21.3,2.1,21.3c0,0,0.1,0,0.1,0c1.8,6.4,4.5,9.4,7.9,14.1
	c0,0,6.2,17.7-22.2,17.7c-11.6,0-18.5,12-20.6,24.2c-0.3,2,0.2,4,1.5,5.5c1.3,1.5,3.1,2.4,5.1,2.4h49.4h49.4c2,0,3.9-0.9,5.1-2.4
	c1.3-1.5,1.8-3.5,1.5-5.5C110.1,93.5,103.3,81.5,91.6,81.5L91.6,81.5L91.6,81.5z"/>
</svg>
