<?xml version="1.0" encoding="utf-8"?>
<!-- Generator: Adobe Illustrator 19.2.0, SVG Export Plug-In . SVG Version: 6.00 Build 0)  -->
<svg version="1.1" id="Layer_1" xmlns="http://www.w3.org/2000/svg" xmlns:xlink="http://www.w3.org/1999/xlink" x="0px" y="0px"
	 viewBox="0 0 100 100" style="enable-background:new 0 0 100 100;" xml:space="preserve">
<g id="Marketplace_Icon_Rev">
	<rect style="fill:none;" width="100" height="100"/>
	<path style="fill:#767778;" d="M47,71V57h-2v14H47z M85,71V57h-2v14H85z M43,78h44v-6H43V78z M45,74h40v2H45V74z M87,50H43v6h44V50
		z M85,54H45v-2h40V54z M64,57v5h2v-5H64z M66,71v-5h-2v5H66z M82,63H48v2h34V63z M21,68h14V56H21V68z M23,58h10v8H23V58z M33,70
		c-1.1,0-2,0.9-2,2s0.9,2,2,2c1.1,0,2-0.9,2-2S34.1,70,33,70z M91,36V18H9v19c0,5,4,9,9,9c3.5,0,6.5-2,8-4.9c1.5,2.9,4.5,4.9,8,4.9
		s6.5-2,8-4.9c1.5,2.9,4.5,4.9,8,4.9s6.5-2,8-4.9c1.5,2.9,4.5,4.9,8,4.9s6.5-2,8-4.9c1.5,2.9,4.5,4.9,8,4.9c2.8,0,5.3-1.3,7-3.3V80
		H41V50H15v30h-4V45H9v37h8V52h22v30h52V37h-2c0,3.9-3.1,7-7,7s-7-3.1-7-7h-2c0,3.9-3.1,7-7,7s-7-3.1-7-7h-2c0,3.9-3.1,7-7,7
		s-7-3.1-7-7h-2c0,3.9-3.1,7-7,7s-7-3.1-7-7h-2c0,3.9-3.1,7-7,7s-7-3.1-7-7V20h78v16H91z"/>
</g>
</svg>
