<svg viewBox="0 0 219 220" xmlns="http://www.w3.org/2000/svg">
    <g>
      <path  d="m109.5 219.3c-14.7 0-29-2.9-42.5-8.6-13-5.5-24.7-13.4-34.7-23.4-10-10-17.9-21.7-23.4-34.7-5.7-13.5-8.6-27.7-8.6-42.5 0-14.7 2.9-29 8.6-42.5 5.5-13 13.4-24.7 23.4-34.7 10-10 21.7-17.9 34.7-23.4 13.5-5.7 27.7-8.6 42.5-8.6 14.8 0 29 2.9 42.5 8.6 13 5.5 24.7 13.4 34.7 23.4 10 10 17.9 21.7 23.4 34.7 5.7 13.5 8.6 27.7 8.6 42.5 0 14.7-2.9 29-8.6 42.5-5.5 13-13.4 24.7-23.4 34.7-10 10-21.7 17.9-34.7 23.4-13.5 5.7-27.8 8.6-42.5 8.6m0-206.5c-26 0-50.5 10.1-68.9 28.5-18.4 18.4-28.5 42.9-28.5 68.9 0 26 10.1 50.5 28.5 68.9 18.4 18.4 42.9 28.5 68.9 28.5 26 0 50.5-10.1 68.9-28.5 18.4-18.4 28.5-42.9 28.5-68.9 0-26-10.1-50.5-28.5-68.9-18.4-18.4-42.9-28.5-68.9-28.5" bbox=".3 .9 218.4 218.4"/>
      <path d="m109.5 24.4c-47.4 0-85.8 38.4-85.8 85.8 0 24.5 10.3 46.5 26.7 62.2v-21.8c4 1.4 8.2 2.2 12.7 2.2 4.4 0 8.7-.8 12.7-2.2v26.3h67.5v-26.3c4 1.4 8.2 2.2 12.7 2.2 4.4 0 8.7-.8 12.7-2.2v21.8c16.4-15.6 26.7-37.7 26.7-62.2-.1-47.4-38.5-85.8-85.9-85.8m46.4 109.3c-8 0-15-4.5-18.6-11.1-4.1 11.4-15 19.6-27.8 19.6-12.8 0-23.7-8.2-27.8-19.6-3.6 6.6-10.6 11.1-18.6 11.1-11.7 0-21.1-9.4-21.1-21.1l14-38.5c1.6-4.4 6.6-7.9 11.3-7.9h84.3c4.6 0 9.7 3.5 11.3 7.9l14 38.5c.1 11.7-9.3 21.1-21 21.1" bbox="23.7 24.4 171.7 152.5"/>
    </mask>
  </g>
</svg>
