<?xml version="1.0" encoding="utf-8"?>
<!-- Generator: Adobe Illustrator 19.1.0, SVG Export Plug-In . SVG Version: 6.00 Build 0)  -->
<svg version="1.1" id="ICON" xmlns="http://www.w3.org/2000/svg" xmlns:xlink="http://www.w3.org/1999/xlink" x="0px" y="0px"
	 viewBox="0 0 76 76" style="enable-background:new 0 0 76 76;" xml:space="preserve">
<path id="BLUE__x2022__x2022__x2022__ICON" class="st0" d="M38,0C17,0,0,17,0,38s17,38,38,38s38-17,38-38S59,0,38,0z M38,71.9
	C19.3,71.9,4.1,56.7,4.1,38S19.3,4.1,38,4.1S71.9,19.3,71.9,38S56.7,71.9,38,71.9z M22,32c-3.3,0-6,2.7-6,6s2.7,6,6,6s6-2.7,6-6
	S25.3,32,22,32z M38,32c-3.3,0-6,2.7-6,6s2.7,6,6,6s6-2.7,6-6S41.3,32,38,32z M54,32c-3.3,0-6,2.7-6,6s2.7,6,6,6s6-2.7,6-6
	S57.3,32,54,32z"/>
</svg>
