<svg viewBox="0 0 219 220" xmlns="http://www.w3.org/2000/svg"><g><path d="m109.7 219.3c-14.7 0-29-2.9-42.5-8.6-13-5.5-24.7-13.4-34.7-23.4-10-10-17.9-21.7-23.4-34.7-5.7-13.5-8.6-27.7-8.6-42.5 0-14.7 2.9-29 8.6-42.5 5.5-13 13.4-24.7 23.4-34.7 10-10 21.7-17.9 34.7-23.4 13.5-5.7 27.7-8.6 42.5-8.6 14.7 0 29 2.9 42.5 8.6 13 5.5 24.7 13.4 34.7 23.4 10 10 17.9 21.7 23.4 34.7 5.7 13.5 8.6 27.7 8.6 42.5 0 14.7-2.9 29-8.6 42.5-5.5 13-13.4 24.7-23.4 34.7-10 10-21.7 17.9-34.7 23.4-13.5 5.7-27.8 8.6-42.5 8.6m0-206.5c-26 0-50.5 10.1-68.9 28.5-18.4 18.4-28.5 42.9-28.5 68.9 0 26 10.1 50.5 28.5 68.9 18.4 18.4 42.9 28.5 68.9 28.5 26 0 50.5-10.1 68.9-28.5 18.4-18.4 28.5-42.9 28.5-68.9 0-26-10.1-50.5-28.5-68.9-18.4-18.4-42.9-28.5-68.9-28.5"/><g transform="translate(23 24)"><path d="m100.4 160.5c-4.7 0-8.4-3.8-8.4-8.4v-1.9h46.7c5.7 0 10.4-4.6 10.4-10.4v-46.7h1.9c4.7 0 8.4 3.8 8.4 8.4v30.2c8.3-13.2 13-28.8 13-45.5 0-47.4-38.4-85.8-85.8-85.8-47.4 0-85.8 38.4-85.8 85.8 0 47.4 38.4 85.8 85.8 85.8 15.6 0 30.2-4.2 42.8-11.5h-29m-54.9-55v-50.6c0-4.7 3.8-8.4 8.4-8.4h50.6c4.7 0 8.4 3.8 8.4 8.4v50.6c0 4.7-3.8 8.4-8.4 8.4h-50.6c-4.7 0-8.4-3.7-8.4-8.4m15.5 15.6v-1.9h46.7c5.7 0 10.4-4.6 10.4-10.4v-46.7h1.9c4.7 0 8.4 3.8 8.4 8.4v50.6c0 4.7-3.8 8.4-8.4 8.4h-50.6c-4.6 0-8.4-3.8-8.4-8.4m23.9 23.9c-4.7 0-8.4-3.8-8.4-8.4v-1.9h46.7c5.7 0 10.4-4.6 10.4-10.4v-46.7h1.9c4.7 0 8.4 3.8 8.4 8.4v50.6c0 4.7-3.8 8.4-8.4 8.4h-50.6"/><path d="m97 73h-11.4l-4.9-12.5c-.3-.6-.8-1-1.5-1-.7 0-1.2.4-1.5 1l-4.9 12.5h-11.4c-.7 0-1.3.4-1.5 1.1-.2.7 0 1.4.5 1.8l9.6 7.7-4.3 11.7c-.3 1-.1 2 .7 2.6.8.6 1.8.6 2.7.1l10.1-7.2 10.1 7.2c.8.6 1.9.5 2.7-.1.8-.6 1.1-1.6.7-2.6l-4.3-11.7 9.6-7.7c.6-.4.8-1.1.5-1.8-.2-.7-.8-1.1-1.5-1.1"/></g></g></svg>
