<?xml version="1.0" encoding="utf-8"?>
<!-- Generator: Adobe Illustrator 19.2.0, SVG Export Plug-In . SVG Version: 6.00 Build 0)  -->
<svg version="1.1" id="Layer_1" xmlns="http://www.w3.org/2000/svg" xmlns:xlink="http://www.w3.org/1999/xlink" x="0px" y="0px"
	 viewBox="0 0 100 100" style="enable-background:new 0 0 100 100;" xml:space="preserve">
<g id="Office_Bld_Icon">
	<rect style="fill:none;" width="100" height="100"/>
	<g>
		<path style="fill:#DFE0E0;" d="M19,7v86h7v-3h-2V72h12v18h-2v3h7V82h18v11h7v-3h-2V72h12v18h-2v3h7V7H19z M24,12h12v12H24V12z
			 M24,27h12v12H24V27z M24,42h12v12H24V42z M24,69V57h12v12H24z M61,69H39V57h22V69z M61,54H39V42h22V54z M61,39H39V27h22V39z
			 M61,24H39V12h22V24z M64,12h12v12H64V12z M64,27h12v12H64V27z M64,42h12v12H64V42z M64,69V57h12v12H64z"/>
		<path style="fill:#EFEFEF;" d="M24,72h12v4l7-7h-4V57h16l3-3H39V42h22v9l3-3v-6h6l3-3h-9V27h12v9l5-5V7H19v86l5-5V72z M64,12h12
			v12H64V12z M39,12h22v12H39V12z M39,27h22v12H39V27z M24,12h12v12H24V12z M24,27h12v12H24V27z M24,42h12v12H24V42z M24,57h12v12
			H24V57z"/>
	</g>
	<rect x="41" y="74" style="fill:#A6D7EA;" width="18" height="3"/>
	<path style="fill:#3F4041;" d="M81,7H19v86h22V82h18v11h22V10h-2v81H61V80H39v11H21V9h60V7z M43,93h6v-9h-6V93z M45,86h2v5h-2V86z
		 M51,93h6v-9h-6V93z M53,86h2v5h-2V86z M39,78h22v-6H39V78z M41,74h18v2H41V74z M36,90V72H24v18h2V74h8v16H36z M76,90V72H64v18h2
		V74h8v16H76z M36,57H24v12h12V57z M34,67h-8v-8h8V67z M76,57H64v12h12V57z M74,67h-8v-8h8V67z M61,57H39v12h22V57z M59,67H41v-8h18
		V67z M36,42H24v12h12V42z M34,52h-8v-8h8V52z M76,42H64v12h12V42z M74,52h-8v-8h8V52z M61,42H39v12h22V42z M59,52H41v-8h18V52z
		 M36,27H24v12h12V27z M34,37h-8v-8h8V37z M76,27H64v12h12V27z M74,37h-8v-8h8V37z M61,27H39v12h22V27z M59,37H41v-8h18V37z M36,12
		H24v12h12V12z M34,22h-8v-8h8V22z M76,12H64v12h12V12z M74,22h-8v-8h8V22z M61,12H39v12h22V12z M59,22H41v-8h18V22z"/>
</g>
</svg>
