<?xml version="1.0" encoding="utf-8"?>
<!-- Generator: Adobe Illustrator 19.0.0, SVG Export Plug-In . SVG Version: 6.00 Build 0)  -->
<svg version="1.1" id="Layer_1" xmlns="http://www.w3.org/2000/svg" xmlns:xlink="http://www.w3.org/1999/xlink" x="0px" y="0px"
	 viewBox="-1510 711.4 178.6 178.6" enable-background="new -1510 711.4 178.6 178.6" xml:space="preserve">
<circle fill="none" cx="-1420.2" cy="800.7" r="78.7"/>
<path id="Shape_7_" d="M-1420.7,711.4c-49.3,0-89.3,40-89.3,89.3s40,89.3,89.3,89.3c49.3,0,89.3-40,89.3-89.3
	S-1371.4,711.4-1420.7,711.4L-1420.7,711.4z M-1420.7,867.8c-37,0-67-30-67-67s30-67,67-67s67,30,67,67S-1383.7,867.8-1420.7,867.8
	L-1420.7,867.8z M-1432.9,766.3c-2.1-1.3-4.5-1.4-6.6-0.2c-2.1,1.2-3.3,3.2-3.3,5.7v57.8c0,2.4,1.2,4.5,3.3,5.7s4.5,1.1,6.6-0.2
	l46.2-28.9c2-1.2,3-3.2,3-5.5s-1.1-4.3-3-5.5L-1432.9,766.3L-1432.9,766.3z"/>
</svg>
