<?xml version="1.0" encoding="utf-8"?>
<!-- Generator: Adobe Illustrator 19.0.0, SVG Export Plug-In . SVG Version: 6.00 Build 0)  -->
<svg version="1.1" id="Layer_1" xmlns="http://www.w3.org/2000/svg" xmlns:xlink="http://www.w3.org/1999/xlink" x="0px" y="0px"
	 viewBox="0 0 218.2 218.2" enable-background="new 0 0 218.2 218.2" xml:space="preserve">
<g>
	<path d="M109.1,23.3c-47.4,0-85.8,38.4-85.8,85.8s38.4,85.8,85.8,85.8c47.4,0,85.8-38.4,85.8-85.8S156.5,23.3,109.1,23.3z
		 M164.1,111c0,2.2-1.8,4-4,4H115v45.1c0,2.2-1.8,4-4,4h-3.8c-2.2,0-4-1.8-4-4V115H58.1c-2.2,0-4-1.8-4-4v-3.8c0-2.2,1.8-4,4-4h45.1
		V58.1c0-2.2,1.8-4,4-4h3.8c2.2,0,4,1.8,4,4v45.1h45.1c2.2,0,4,1.8,4,4V111z M209.6,66.6c-5.5-13-13.4-24.7-23.4-34.7
		s-21.7-17.9-34.7-23.4C138.1,2.9,123.8,0,109.1,0c-14.7,0-29,2.9-42.5,8.6C53.6,14.1,42,21.9,32,32c-10,10-17.9,21.7-23.4,34.7
		C2.9,80.1,0,94.4,0,109.1c0,14.7,2.9,29,8.6,42.5c5.5,13,13.4,24.7,23.4,34.7c10,10,21.7,17.9,34.7,23.4
		c13.5,5.7,27.7,8.6,42.5,8.6c14.7,0,29-2.9,42.5-8.6c13-5.5,24.7-13.4,34.7-23.4c10-10,17.9-21.7,23.4-34.7
		c5.7-13.5,8.6-27.7,8.6-42.5C218.2,94.4,215.3,80.1,209.6,66.6z M178,178c-18.4,18.4-42.9,28.5-68.9,28.5
		c-26,0-50.5-10.1-68.9-28.5s-28.5-42.9-28.5-68.9c0-26,10.1-50.5,28.5-68.9s42.9-28.5,68.9-28.5c26,0,50.5,10.1,68.9,28.5
		s28.5,42.9,28.5,68.9C206.5,135.1,196.4,159.6,178,178z"/>
</g>
</svg>
