<svg viewBox="0 0 219 220" xmlns="http://www.w3.org/2000/svg"><g ><path d="m109.7 219.3c-14.7 0-29-2.9-42.5-8.6-13-5.5-24.7-13.4-34.7-23.4-10-10-17.9-21.7-23.4-34.7-5.7-13.5-8.6-27.7-8.6-42.5 0-14.7 2.9-29 8.6-42.5 5.5-13 13.4-24.7 23.4-34.7 10-10 21.7-17.9 34.7-23.4 13.5-5.7 27.7-8.6 42.5-8.6 14.8 0 29 2.9 42.5 8.6 13 5.5 24.7 13.4 34.7 23.4 10 10 17.9 21.7 23.4 34.7 5.7 13.5 8.6 27.7 8.6 42.5 0 14.7-2.9 29-8.6 42.5-5.5 13-13.4 24.7-23.4 34.7-10 10-21.7 17.9-34.7 23.4-13.5 5.7-27.8 8.6-42.5 8.6m0-206.5c-26 0-50.5 10.1-68.9 28.5-18.4 18.4-28.5 42.9-28.5 68.9 0 26 10.1 50.5 28.5 68.9 18.4 18.4 42.9 28.5 68.9 28.5 26 0 50.5-10.1 68.9-28.5 18.4-18.4 28.5-42.9 28.5-68.9 0-26-10.1-50.5-28.5-68.9-18.4-18.4-42.9-28.5-68.9-28.5"/><path d="m109.7 24.4c-47.4 0-85.8 38.4-85.8 85.8 0 47.4 38.4 85.8 85.8 85.8 47.4 0 85.8-38.4 85.8-85.8 0-47.4-38.5-85.8-85.8-85.8m44.9 76.5l-23 18.2 10.3 27.7c.8 2.3.2 4.7-1.7 6.1-1.9 1.5-4.4 1.5-6.4.2l-24.2-16.9-24.2 17c-2 1.4-4.4 1.3-6.4-.2-1.9-1.5-2.6-3.8-1.7-6.1l10.3-27.7-23-18.2c-1.3-1-1.8-2.7-1.2-4.3.5-1.6 1.9-2.6 3.6-2.6h27.3l11.7-29.4c.6-1.5 2-2.4 3.6-2.4 1.6 0 3 .9 3.6 2.4l11.7 29.4h27.3c1.7 0 3.1 1 3.6 2.6.6 1.5.2 3.2-1.2 4.2"/></g></svg>
