<?xml version="1.0" encoding="utf-8"?>
<!-- Generator: Adobe Illustrator 19.0.0, SVG Export Plug-In . SVG Version: 6.00 Build 0)  -->
<svg version="1.1" id="Layer_1" xmlns="http://www.w3.org/2000/svg" xmlns:xlink="http://www.w3.org/1999/xlink" x="0px" y="0px"
	 viewBox="0 0 1033.6 475.3" style="enable-background:new 0 0 1033.6 475.3;" xml:space="preserve">
<g>
	<g>
		<path class="st0" d="M461.6,109.6H233l41.4,36h187.2c3.3,0,5.2,2.6,5.2,5.9v70c0,3.3-1.9,6.1-5.2,6.1H330.8v100.5l36,31.3v-95.8
			h94.8c23.2,0,41.2-18.9,41.2-42.1v-70C502.8,128.4,484.7,109.6,461.6,109.6z M486.8,219.6c0,15.4-11.8,28.1-27.2,28.1H350.8V324
			l-4-3.5v-76.9h112.8c13.2,0,23.2-10.9,23.2-24.1v-66c0-13.2-10-23.9-23.2-23.9h-180l-4.6-4h184.6c15.4,0,27.2,12.5,27.2,27.9
			V219.6z"/>
		<path class="st0" d="M575,145.6h187.2l41.4-36H575c-23.2,0-42.2,18.7-42.2,41.9v70c0,23.2,19,42.1,42.2,42.1h93.8v47.7l-13.3,12.3
			H557l-41.4,36h154l35.2-31.5V227.6H575c-3.3,0-6.2-2.8-6.2-6.1v-70C568.8,148.2,571.7,145.6,575,145.6z M577,243.6h111.8v1.9v74.9
			v0l-0.3,0.6l0.2,0L663,343.6H558.5l4.6-4h98.4l23.3-21v-1.4v-69.6H577c-15.4,0-28.2-12.7-28.2-28.1v-66
			c0-15.4,12.7-27.9,28.2-27.9h184.6l-4.6,4H577c-13.2,0-24.2,10.7-24.2,23.9v66C552.8,232.8,563.7,243.6,577,243.6z"/>
	</g>
	<g>
		<g>
			<polygon class="st0" points="41.4,145.6 238.3,145.6 219.9,129.6 23,129.6 			"/>
			<polygon class="st0" points="18.4,125.6 215.3,125.6 196.9,109.6 0,109.6 			"/>
		</g>
		<g>
			<polygon class="st0" points="177.2,263.6 304.8,263.6 304.8,247.6 158.8,247.6 			"/>
			<polygon class="st0" points="135.7,227.6 154.1,243.6 304.8,243.6 304.8,227.6 			"/>
		</g>
		<g>
			<polygon class="st0" points="69,169.6 87.4,185.6 438.8,185.6 438.8,169.6 			"/>
			<polygon class="st0" points="110.4,205.6 438.8,205.6 438.8,189.6 92,189.6 			"/>
		</g>
	</g>
	<g>
		<g>
			<polygon class="st0" points="992.1,145.6 795.3,145.6 813.7,129.6 1010.6,129.6 			"/>
			<polygon class="st0" points="1015.2,125.6 818.3,125.6 836.7,109.6 1033.6,109.6 			"/>
		</g>
		<g>
			<polygon class="st0" points="856.4,263.6 726.8,263.6 726.8,247.6 874.8,247.6 			"/>
			<polygon class="st0" points="897.8,227.6 879.4,243.6 726.8,243.6 726.8,227.6 			"/>
		</g>
		<g>
			<polygon class="st0" points="964.5,169.6 946.1,185.6 592.8,185.6 592.8,169.6 			"/>
			<polygon class="st0" points="923.1,205.6 592.8,205.6 592.8,189.6 941.5,189.6 			"/>
		</g>
	</g>
	<g>
		<path class="st0" d="M345.5,53.4l-2.2,8.2l-4.2,1.8l8-29.6l2.6-1.1l26.9,14.7l-4.2,1.8l-7.5-4.1L345.5,53.4z M349.9,36.8L346.6,49
			l14.4-6.1L349.9,36.8z"/>
		<path class="st0" d="M404.8,14c2.5-0.7,4.2-0.7,5.7,0.2c1.5,0.8,2.4,2.2,3.1,4.8l0.7,2.3c0.8,2.6,0.7,4.2-0.1,5.7
			c-0.9,1.5-2.2,2.4-4.8,3.2l-21.4,6.2l2,6.9l-3.7,1.1l-6.6-23.1L404.8,14z M407.6,26.9c2.2-0.6,2.7-0.9,3.2-1.7
			c0.3-0.6,0.4-1.2,0.1-2.3l-1.1-3.7c-0.3-1-0.7-1.6-1.3-1.9c-0.8-0.4-1.4-0.3-3.6,0.3l-20.5,5.9l2.7,9.2L407.6,26.9z"/>
		<path class="st0" d="M451.5,4.6c2.6-0.4,4.2-0.2,5.7,0.8c1.4,1,2.1,2.4,2.6,5.1l0.4,2.4c0.5,2.7,0.3,4.3-0.7,5.7
			c-1,1.4-2.5,2.2-5.1,2.6l-22,3.7l1.2,7.1l-3.8,0.6l-4-23.7L451.5,4.6z M452.8,17.8c2.2-0.4,2.8-0.6,3.4-1.3
			c0.4-0.5,0.5-1.2,0.3-2.2l-0.6-3.8c-0.2-1.1-0.5-1.6-1.1-2c-0.8-0.5-1.4-0.5-3.6-0.1l-21,3.6l1.6,9.5L452.8,17.8z"/>
		<path class="st0" d="M498.8,0.2c2.6-0.2,4.2,0.3,5.5,1.4c1.3,1.1,1.8,2.6,2,5.4l0.6,9.6c0.2,2.7-0.2,4.3-1.3,5.6
			c-1.2,1.3-2.7,1.9-5.3,2.1l-26,1.6l-1.4-24L498.8,0.2z M477.8,22l21.3-1.3c2.3-0.1,3-0.3,3.5-0.9c0.5-0.6,0.6-1.4,0.5-3.6
			l-0.5-8.2c-0.1-2.2-0.3-3-0.9-3.6c-0.6-0.5-1.3-0.6-3.6-0.5l-21.3,1.3L477.8,22z"/>
		<path class="st0" d="M524.7,24.1l-3.8-0.1l0.3-24l3.8,0.1L524.7,24.1z"/>
		<path class="st0" d="M566.7,2.6c2.6,0.2,4.1,0.9,5.2,2.2s1.4,2.9,1.2,5.6l-0.2,1.8c-0.2,2.7-0.8,4.2-2.1,5.3c-1,0.9-2,1.2-3.9,1.4
			l5,8.3l-4.7-0.4l-4.6-8.2L543,16.8l-0.7,7.8l-3.8-0.3l2.1-23.9L566.7,2.6z M564.6,15.1c2.3,0.2,2.9,0.1,3.6-0.4
			c0.5-0.4,0.8-1,0.9-2.1l0.3-3.3c0.1-1-0.1-1.7-0.5-2.2c-0.6-0.6-1.2-0.8-3.5-1l-21.3-1.9l-0.8,9L564.6,15.1z"/>
		<path class="st0" d="M592.6,9.8l-1.3,6.5l25.8,5.1l-1.2,3.4l-25.4-5l-1.3,6.5l26.7,5.3l-0.7,3.5l-30.5-6l4.7-23.6l29.6,5.9
			l-0.7,3.5L592.6,9.8z"/>
		<path class="st0" d="M660.5,42.8c-1.8,3.8-4.2,4.7-8.5,3.3l-18.1-5.8c-2.5-0.8-3.8-1.8-4.7-3.3c-0.8-1.5-0.8-3.1,0.1-5.7l2.9-9.2
			c0.8-2.6,1.7-3.9,3.3-4.7c1.6-0.8,3.2-0.8,5.7,0l18.1,5.8c4.4,1.4,5.8,3.5,5,7.7l-3.8-0.7c0.2-1,0.2-1.5-0.1-2.1
			c-0.4-0.7-1-1.1-3.2-1.8L641,21.2c-2.2-0.7-2.9-0.8-3.6-0.4c-0.7,0.4-1.1,1.1-1.8,3.2l-2.5,7.8c-0.7,2.1-0.8,2.9-0.4,3.6
			c0.4,0.7,1,1.1,3.2,1.8l16.3,5.2c2.2,0.7,2.9,0.8,3.6,0.4c0.5-0.3,0.9-0.7,1.3-1.6L660.5,42.8z"/>
		<path class="st0" d="M685.2,59.6l-3.5-1.6l8.4-18.6l-13.4-6.1l1.5-3.3l30.2,13.7l-1.5,3.3L693.6,41L685.2,59.6z"/>
	</g>
	<g>
		<path class="st0" d="M281.7,365c1.8,1.9,2.5,3.4,2.5,5.1c0,1.7-0.8,3.1-2.8,5l-1.8,1.7c-2,1.9-3.4,2.6-5.1,2.6
			c-1.7-0.1-3.2-0.8-5-2.7l-15.2-16l-5.2,5l-2.6-2.7l17.4-16.5L281.7,365z M271.5,373.4c1.6,1.6,2.1,2,2.9,2.1c0.7,0,1.3-0.2,2.1-1
			l2.8-2.7c0.8-0.7,1.1-1.3,1.1-2c0-0.9-0.3-1.4-1.9-3.1l-14.5-15.3l-7,6.6L271.5,373.4z"/>
		<path class="st0" d="M289.6,394.9l-8.2,2.3l-3.6-2.7l29.4-8.2l2.3,1.7l0.8,30.5l-3.6-2.7l-0.3-8.5L289.6,394.9z M306,390.3
			l-12.1,3.3l12.5,9.2L306,390.3z"/>
		<path class="st0" d="M355.8,415.8c2.3,1.2,3.5,2.4,4,4c0.5,1.6,0.2,3.2-1.1,5.6l-0.8,1.6c-1.3,2.4-2.4,3.6-4,4.1
			c-1.3,0.4-2.3,0.3-4.1-0.2l1.4,9.6l-4.2-2.2l-1-9.3l-17.2-9l-3.6,6.9l-3.3-1.7l11.1-21.3L355.8,415.8z M349.1,426.6
			c2,1,2.6,1.2,3.5,1c0.7-0.2,1.1-0.6,1.6-1.6l1.5-2.9c0.5-0.9,0.6-1.6,0.4-2.2c-0.3-0.8-0.8-1.2-2.8-2.3l-18.8-9.8l-4.2,8
			L349.1,426.6z"/>
		<path class="st0" d="M379.9,451.8l-3.5-1.3l7-19.2l-13.7-5l1.2-3.4l30.9,11.3l-1.2,3.4l-13.7-5L379.9,451.8z"/>
		<path class="st0" d="M409.6,461.3l-3.7-0.9l5.5-23.4l3.7,0.9l21.6,18.7l3-12.9l3.7,0.9l-5.5,23.4l-3.7-0.9l1.6-6.7l-21.7-18.6
			L409.6,461.3z"/>
		<path class="st0" d="M459.6,450.8l-0.8,6.6l25.9,3l-0.9,3.5l-25.4-3l-0.8,6.5l26.8,3.1l-0.4,3.6l-30.6-3.5l2.8-23.9l29.6,3.4
			l-0.4,3.6L459.6,450.8z"/>
		<path class="st0" d="M524.7,451.2c2.6,0,4.1,0.6,5.3,1.8s1.6,2.8,1.6,5.5l0,1.8c0,2.7-0.5,4.3-1.7,5.5c-1,1-1.9,1.3-3.8,1.6
			l5.5,7.9l-4.7-0.1l-5.1-7.9l-19.4-0.2l-0.1,7.8l-3.8,0l0.3-24L524.7,451.2z M523.6,463.8c2.3,0,2.9-0.1,3.5-0.7
			c0.5-0.5,0.7-1.1,0.7-2.1l0-3.3c0-1-0.2-1.7-0.7-2.1c-0.7-0.6-1.3-0.7-3.5-0.8l-21.1-0.3l-0.1,9L523.6,463.8z"/>
		<path class="st0" d="M592.6,450.4c-0.3-1-0.6-1.4-1-1.8c-0.7-0.5-1.4-0.5-3.6-0.2l-16.7,2.7c-2.2,0.3-2.8,0.6-3.4,1.3
			c-0.4,0.5-0.5,1.2-0.4,2.2l0.1,0.9c0.2,1.1,0.5,1.6,1,2c0.8,0.5,1.4,0.5,3.6,0.2l17.6-2.8c2.6-0.4,4.3-0.2,5.6,0.9
			c1.2,0.9,2.1,2.5,2.4,4.4l0.1,0.9c0.3,1.8,0,3.7-0.9,4.9c-1,1.4-2.4,2.1-5.1,2.6l-18.5,3c-4.5,0.7-6.7-0.5-7.9-4.6l3.6-1.1
			c0.3,1,0.5,1.5,1,1.8c0.7,0.5,1.4,0.5,3.6,0.2l16.6-2.7c2.2-0.4,2.8-0.6,3.4-1.3c0.4-0.5,0.5-1.2,0.4-2.2l-0.1-0.9
			c-0.2-1-0.5-1.6-1-2c-0.8-0.5-1.4-0.5-3.6-0.2l-17.6,2.8c-2.6,0.4-4.3,0.2-5.6-0.9c-1.2-0.9-2.1-2.5-2.4-4.4l-0.1-0.9
			c-0.3-1.9,0-3.7,0.9-5c1-1.4,2.4-2.1,5-2.6l18.5-3c4.5-0.7,6.7,0.5,7.9,4.6L592.6,450.4z"/>
		<path class="st0" d="M611.3,439.8l4.4,15.5c0.6,2.1,1,2.8,1.7,3.3c0.7,0.4,1.4,0.3,3.6-0.3l16.2-4.7c2.2-0.6,2.8-1,3.2-1.7
			c0.4-0.7,0.3-1.5-0.3-3.7l-4.4-15.5l3.6-1l4.6,16.2c0.8,2.6,0.7,4.2-0.1,5.7c-0.8,1.5-2.2,2.4-4.7,3.2l-18,5.2
			c-2.5,0.7-4.1,0.7-5.7-0.2c-1.5-0.8-2.3-2.2-3.1-4.8l-4.6-16.2L611.3,439.8z"/>
		<path class="st0" d="M679.8,414.9l3.4-1.5l9.7,22l-3.4,1.5l-8-18.1l-8.4,14.7l-16.6-3.7l8,18.1l-3.4,1.5l-9.7-22l3.4-1.5l16.5,3.5
			L679.8,414.9z"/>
		<path class="st0" d="M720.8,390.6l3.2-2l12.9,20.3l-3.2,2l-10.6-16.7l-6.1,15.9l-16.9-1.1l10.6,16.7l-3.2,2l-12.9-20.3l3.2-2
			l16.8,1L720.8,390.6z"/>
		<path class="st0" d="M752.2,396.6l-2.9,2.4l-15.2-18.6l2.9-2.4L752.2,396.6z"/>
		<path class="st0" d="M775,375.5l-2.6,2.7l-14.6-14.3l-10.2,10.4l-2.6-2.5l23-23.5l2.6,2.5l-10.2,10.4L775,375.5z"/>
	</g>
	<g>
		<polygon class="st0" points="416.8,359.6 408.8,359.6 408.8,301.6 384.8,301.6 384.8,293.6 416.8,293.6 		"/>
		<path class="st0" d="M444.8,359.6h46c6.6,0,12-4.7,12-11.3v-18c0-6.6-5.4-12.7-12-12.7h-48v-16h181.4l9.2-8H434.8v32h56
			c2.2,0,4,2.5,4,4.7v18c0,2.2-1.8,3.3-4,3.3h-46c-2.2,0-4-1.1-4-3.3v-6.7h-8v6.7C432.8,354.9,438.2,359.6,444.8,359.6z"/>
	</g>
</g>
</svg>
