<svg viewBox="0 0 219 220" xmlns="http://www.w3.org/2000/svg"><g><path d="m109.6 219.3c-14.7 0-29-2.9-42.5-8.6-13-5.5-24.7-13.4-34.7-23.4-10-10-17.9-21.7-23.4-34.7-5.7-13.5-8.6-27.7-8.6-42.5 0-14.7 2.9-29 8.6-42.5 5.5-13 13.4-24.7 23.4-34.7 10-10 21.7-17.9 34.7-23.4 13.5-5.7 27.7-8.6 42.5-8.6 14.8 0 29 2.9 42.5 8.6 13 5.5 24.7 13.4 34.7 23.4 10 10 17.9 21.7 23.4 34.7 5.7 13.5 8.6 27.7 8.6 42.5 0 14.7-2.9 29-8.6 42.5-5.5 13-13.4 24.7-23.4 34.7-10 10-21.7 17.9-34.7 23.4-13.5 5.7-27.8 8.6-42.5 8.6m0-206.5c-26 0-50.5 10.1-68.9 28.5-18.4 18.4-28.5 42.9-28.5 68.9 0 26 10.1 50.5 28.5 68.9 18.4 18.4 42.9 28.5 68.9 28.5 26 0 50.5-10.1 68.9-28.5 18.4-18.4 28.5-42.9 28.5-68.9 0-26-10.1-50.5-28.5-68.9-18.4-18.4-42.9-28.5-68.9-28.5"/><path d="m109.6 24.4c-47.4 0-85.8 38.4-85.8 85.8 0 15.7 4.2 30.3 11.5 42.9h20.9v-42.7h42.7v-21.4h-21.4v-21.4h64.1v21.4h-21.4v21.4h42.8v42.7h20.8c7.3-12.6 11.5-27.3 11.5-42.9.1-47.4-38.3-85.8-85.7-85.8m32.1 165.4c7.7-3.1 14.9-7.3 21.4-12.5v-2.8h-21.4v15.3m-85.5-12.5c6.4 5.1 13.6 9.3 21.4 12.5v-15.3h-21.4v2.8m85.5-45.5h-64.1v21.4h21.4v42.1c3.5.4 7.1.7 10.7.7 3.6 0 7.2-.3 10.7-.7v-42.1h21.4v-21.4h-.1"/></g></svg>
