<?xml version="1.0" encoding="utf-8"?>
<!-- Generator: Adobe Illustrator 19.2.0, SVG Export Plug-In . SVG Version: 6.00 Build 0)  -->
<svg version="1.1" id="Layer_1" xmlns="http://www.w3.org/2000/svg" xmlns:xlink="http://www.w3.org/1999/xlink" x="0px" y="0px"
	 viewBox="0 0 1400 510" style="enable-background:new 0 0 1400 510;" xml:space="preserve">
<g id="Artwork">
	<g>
		<path style="fill:#A6D7EA;" d="M468.5,269h-43.8c-1.4-8-7.4-12-14.7-12c-5.4,0-10.1,2.2-12.8,6.7c-1-0.4-2.1-0.7-3.2-0.7
			c-3.7,0-6.8,3-7.7,6h-24.8c-4.1,0-7.5,3.4-7.5,7.5s3.4,7.5,7.5,7.5h107c4.1,0,7.5-3.4,7.5-7.5S472.6,269,468.5,269z"/>
		<path style="fill:#A6D7EA;" d="M105.5,391H85c0-6-4.5-10-10-10c-2.4,0-4.5,0.8-6.2,2.2c-2.6-4.3-7.4-7.2-12.8-7.2
			c-5.2,0-9.8,2.6-12.5,6.7c-1.6-1.1-3.5-1.7-5.5-1.7c-5.5,0-10,4-10,10h-0.5c-4.1,0-7.5,3.4-7.5,7.5s3.4,7.5,7.5,7.5h78
			c4.1,0,7.5-3.4,7.5-7.5S109.6,391,105.5,391z"/>
		<path style="fill:#A6D7EA;" d="M1314.6,98h-13.7c-1.4-7-7.4-11.8-14.6-11.8c-3.6,0-6.8,1.1-9.4,3.1c-1.5-0.8-3.1-1.3-4.9-1.3
			c-5.5,0-10,4.4-10,9.9V98h-4c-4.1,0-7.4,3.4-7.4,7.5s3.3,7.5,7.4,7.5h56.5c4.1,0,7.4-3.4,7.4-7.5C1322,101.4,1318.7,98,1314.6,98z
			"/>
		<g>
			<path style="fill:#A6D7EA;" d="M722.9,364h-16.6c0,0,0-1.1,0-1.4c0-15.7-12.7-28.7-28.5-28.7c-9.1,0-17.2,4.2-22.4,10.9l-0.6-0.3
				c-2.9-1.5-6.2-1.9-9.7-1.9c-11.6,0-21,8.5-21,21.5H621h-12c-6.1,0-11,4.2-11,10s4.9,10,11,10h113.9c6.1,0,11-4.2,11-10
				S729,364,722.9,364z"/>
			<path style="fill:#FFFFFF;" d="M643.5,351H639c0-5-3.6-8.1-8-8.1c-0.9,0-1.8,0.1-2.6,0.4c-2.6-4.4-7.4-7.4-12.9-7.4
				c-8.3,0-15,6.1-15,15.1h-24c-5.2,0-9.5,4.3-9.5,9.5s4.3,9.5,9.5,9.5h67c5.2,0,9.5-4.3,9.5-9.5S648.7,351,643.5,351z"/>
			<path style="fill:#ADAEAF;" d="M643.5,371h-67c-5.8,0-10.5-4.7-10.5-10.5s4.7-10.5,10.5-10.5h23c0.5-8.7,7.2-15.1,16-15.1
				c5.5,0,10.5,2.7,13.4,7.2c0.6-0.1,1.3-0.2,2.1-0.2c4.9,0,8.5,3.3,9,8.1h3.5c5.8,0,10.5,4.7,10.5,10.5S649.3,371,643.5,371z
				 M576.5,352c-4.7,0-8.5,3.8-8.5,8.5s3.8,8.5,8.5,8.5h67c4.7,0,8.5-3.8,8.5-8.5s-3.8-8.5-8.5-8.5H638v-1c0-4.2-2.9-7.1-7-7.1
				c-0.9,0-1.6,0.1-2.2,0.3l-0.8,0.3l-0.4-0.7c-2.5-4.3-7-6.9-12.1-6.9c-8.1,0-14,5.9-14,14.1v1L576.5,352L576.5,352z"/>
		</g>
		<g>
			<path style="fill:#A6D7EA;" d="M232.9,234h-90.4c0-5-3.2-7.4-7.2-7.4c-1.2,0-2.3,0.2-3.3,0.7c-1.1-3.6-4.4-6.4-8.4-6.4
				s-7.4,2.6-8.4,6.3c-1-0.5-2.1-0.7-3.3-0.7c-4,0-7.2,2.4-7.2,7.4h-0.4c-3.9,0-7.1,3.1-7.1,7s3.2,7,7.1,7H233c3.9,0,7.1-3.1,7.1-7
				C240,237.1,236.8,234,232.9,234z"/>
			<path style="fill:#FFFFFF;" d="M188.1,243h-53.7c0-7-5.3-12.5-11.9-12.5c-1.4,0-2.8,0-4.1,0.5c0-0.3,0.1-0.6,0.1-0.9
				c0-11-8.9-20-19.9-20S78.7,219,78.7,230c0,0.3,0.1,0.5,0.1,0.7c-1.3-0.5-2.6-0.2-4.1-0.2c-6.6,0-11.9,5.5-11.9,12.5H28.9
				c-5.5,0-9.9,4-9.9,9.5s4.5,9.5,9.9,9.5h69.6H188c5.5,0,9.9-4,9.9-9.5C198,247,193.5,243,188.1,243z"/>
			<path style="fill:#ADAEAF;" d="M188.1,263H28.9c-6.1,0-10.9-4.6-10.9-10.5S22.8,242,28.9,242h32.8c0.5-7.1,6-12.5,12.9-12.5
				c0.4,0,0.7,0,1.1,0c0.6,0,1.3-0.1,1.9,0c0.3-11.3,9.5-20.3,20.9-20.3s20.7,9.2,20.9,20.5c1-0.2,2-0.2,3-0.2
				c6.8,0,12.4,5.5,12.9,12.5H188c6.1,0,10.9,4.6,10.9,10.5S194.2,263,188.1,263z M28.9,244c-5.1,0-8.9,3.7-8.9,8.5
				c0,4.8,3.8,8.5,8.9,8.5H188c5.1,0,8.9-3.7,8.9-8.5s-3.8-8.5-8.9-8.5h-54.7v-1c0-6.4-4.8-11.5-10.9-11.5c-1.3,0-2.6,0-3.7,0.4
				l-1.4,0.5l0.1-1.5c0-0.1,0-0.3,0-0.5c0-0.1,0-0.3,0-0.4c0-10.5-8.5-19-18.9-19s-18.9,8.5-18.9,18.9c0,0.1,0,0.2,0,0.2
				c0,0.1,0,0.3,0,0.4l0.1,1.5l-1.4-0.5c-0.7-0.3-1.6-0.2-2.5-0.2c-0.4,0-0.8,0-1.2,0c-6.1,0-10.9,5-10.9,11.5v1H28.9V244z"/>
		</g>
		<path style="fill:#A6D7EA;" d="M792,450h129v-2H792V450z M923,450h8v-2h-8V450z M933,450h4v-2h-4V450z M782,450h8v-2h-8V450z
			 M776,450h4v-2h-4V450z M808,442h129v-2H808V442z M939,442h8v-2h-8V442z M949,440v2h4v-2H949z M806,440h-8v2h8V440z M796,440h-4v2
			h4V440z"/>
		<path style="fill:#A6D7EA;" d="M625,53h199v-2H625V53z M826,53h8v-2h-8V53z M836,51v2h4v-2H836z M615,53h8v-2h-8V53z M609,53h4v-2
			h-4V53z M784,43H665v2h119V43z M794,43h-8v2h8V43z M800,43h-4v2h4V43z M663,43h-8v2h8V43z M653,43h-4v2h4V43z M665,61h119v-2H665
			V61z M786,61h8v-2h-8V61z M796,61h4v-2h-4V61z M655,61h8v-2h-8V61z M649,61h4v-2h-4V61z"/>
	</g>
	<g>
		<path style="fill:#3F4041;" d="M0,510h133v-2H0V510z M237,510h38v-2h-38V510z M408,510h38v-2h-38V510z M582,508v2h818v-2H582z"/>
		<g>
			<g>
				<polygon style="fill:#DFE0E0;" points="547,187 547,151 538,151 538,133 490,133 490,151 481,151 481,187 448,187 448,510 
					580,510 580,187 				"/>
			</g>
			<path style="fill:#F2CD9C;" d="M567,180l-3.5-52.5L560,180h-4v8h15v-8H567z M464.5,127.5L461,180h-4v8h15v-8h-4L464.5,127.5z
				 M513.5,62.5L510,126h-4v8h15v-8h-4L513.5,62.5z"/>
			<g style="opacity:0.5;">
				<polygon style="fill:#FFFFFF;" points="580,377.5 580,187 571,187 571,180 567,180 563.5,127.5 560,180 556,180 556,187 
					547,187 547,151 538,151 538,133 521,133 521,126 517,126 513.5,62.5 510,126 506,126 506,133 490,133 490,151 481,151 481,187 
					472,187 472,180 468,180 464.5,127.5 461,180 457,180 457,187 448,187 448,509.5 				"/>
			</g>
			<path style="fill:#A6D7EA;" d="M489,171v337h50V171H489z M537,134h-46v18h46V134z"/>
			<path style="fill:#3F4041;" d="M497,507V174h-2v333H497z M503,507V174h-2v333H503z M509,507V174h-2v333H509z M515,507V174h-2v333
				H515z M521,507V174h-2v333H521z M527,507V174h-2v333H527z M533,507V174h-2v333H533z M539,507V171h-50v336h2V173h46v334H539z
				 M459,186v2h11v-2H459z M558,186v2h11v-2H558z M508,132v2h11v-2H508z M488,188v-2h-5v2H488z M545,188v-2h-5v2H545z M492,152h44
				v-2h-44V152z M492,146h44v-2h-44V146z M492,140h44v-2h-44V140z M555,500h17v-16h-17V500z M557,486h13v12h-13V486z M456,500h17
				v-16h-17V500z M458,486h13v12h-13V486z M572,460h-17v16h17V460z M570,474h-13v-12h13V474z M473,460h-17v16h17V460z M471,474h-13
				v-12h13V474z M572,436h-17v16h17V436z M570,450h-13v-12h13V450z M473,436h-17v16h17V436z M471,450h-13v-12h13V450z M572,412h-17
				v16h17V412z M570,426h-13v-12h13V426z M473,412h-17v16h17V412z M471,426h-13v-12h13V426z M572,388h-17v16h17V388z M570,402h-13
				v-12h13V402z M473,388h-17v16h17V388z M471,402h-13v-12h13V402z M572,364h-17v16h17V364z M570,378h-13v-12h13V378z M473,364h-17
				v16h17V364z M471,378h-13v-12h13V378z M572,340h-17v16h17V340z M570,354h-13v-12h13V354z M473,340h-17v16h17V340z M471,354h-13
				v-12h13V354z M572,316h-17v16h17V316z M570,330h-13v-12h13V330z M473,316h-17v16h17V316z M471,330h-13v-12h13V330z M572,186v-7
				h-4.1l-3.4-51.6h-2l-3.4,51.6H555v7h-7v-36h-9v-18h-17v-7h-4l-3.5-62.6h-2L509,125h-4v7h-16v18h-9v36h-7v-7h-4.1l-3.4-51.6h-2
				l-3.4,51.6H456v7h-9v324h131v-2H449V188h9v-7h3.9l2.6-38.5l2.6,38.5h3.9v7h9v319h2V188v-36h9v-18h16v-7h3.9l2.6-46.4l2.6,46.4
				h3.9v7h17v18h9v36v319h2V188h9v-7h3.9l2.6-38.5l2.6,38.5h3.9v7h9v322h2V186H572z M572,292h-17v16h17V292z M570,306h-13v-12h13
				V306z M473,292h-17v16h17V292z M471,306h-13v-12h13V306z M572,268h-17v16h17V268z M570,282h-13v-12h13V282z M473,268h-17v16h17
				V268z M471,282h-13v-12h13V282z M572,244h-17v16h17V244z M570,258h-13v-12h13V258z M473,244h-17v16h17V244z M471,258h-13v-12h13
				V258z M572,220h-17v16h17V220z M570,234h-13v-12h13V234z M473,220h-17v16h17V220z M471,234h-13v-12h13V234z M572,196h-17v16h17
				V196z M570,210h-13v-12h13V210z M473,196h-17v16h17V196z M471,210h-13v-12h13V210z"/>
			<path style="fill:#FFFFFF;" d="M557,306h13v-12h-13V306z M557,330h13v-12h-13V330z M557,282h13v-12h-13V282z M557,198v12h13v-12
				H557z M557,354h13v-12h-13V354z M557,258h13v-12h-13V258z M557,234h13v-12h-13V234z M557,450h13v-12h-13V450z M557,474h13v-12
				h-13V474z M557,498h13v-12h-13V498z M557,402h13v-12h-13V402z M557,426h13v-12h-13V426z M557,378h13v-12h-13V378z M458,426h13
				v-12h-13V426z M458,282h13v-12h-13V282z M458,330h13v-12h-13V330z M458,258h13v-12h-13V258z M458,306h13v-12h-13V306z M458,210
				h13v-12h-13V210z M458,234h13v-12h-13V234z M458,402h13v-12h-13V402z M458,474h13v-12h-13V474z M458,354h13v-12h-13V354z
				 M458,450h13v-12h-13V450z M458,498h13v-12h-13V498z M458,378h13v-12h-13V378z"/>
		</g>
		<g>
			<rect x="276" y="337" style="fill:#DFE0E0;" width="131" height="173"/>
			<polygon style="opacity:0.5;fill:#FFFFFF;enable-background:new    ;" points="407,378.5 407,337 276,337 276,509.5 			"/>
			<rect x="318" y="478" style="fill:#FFE5CC;" width="47" height="30"/>
			<path style="fill:#FFFFFF;" d="M319,368h45v-21h-45V368z M397,347h-24v21h24V347z M310,347h-24v21h24V347z M319,398h45v-21h-45
				V398z M397,377h-24v21h24V377z M310,377h-24v21h24V377z M319,428h45v-21h-45V428z M397,407h-24v21h24V407z M310,407h-24v21h24
				V407z M319,458h45v-21h-45V458z M285,508h26v-42h-26V508z M397,437h-24v21h24V437z M310,437h-24v21h24V437z M372,466v42h26v-42
				H372z"/>
			<polygon style="fill:#A6D7EA;" points="362,466 360,464 323,464 321,466 319,466 319,471 321,471 323,473 360,473 362,471 
				364,471 364,466 			"/>
			<path style="fill:#3F4041;" d="M407,337H276v173h131V340h-2v168H278V339h129V337z M311,507v-41h-26v41h2v-39h22v39H311z M398,507
				v-41h-26v41h2v-39h22v39H398z M365,346h-47v23h47V346z M363,367h-43v-19h43V367z M398,346h-26v23h26V346z M396,367h-22v-19h22
				V367z M311,346h-26v23h26V346z M309,367h-22v-19h22V367z M365,376h-47v23h47V376z M363,397h-43v-19h43V397z M398,376h-26v23h26
				V376z M396,397h-22v-19h22V397z M311,376h-26v23h26V376z M309,397h-22v-19h22V397z M365,406h-47v23h47V406z M363,427h-43v-19h43
				V427z M398,406h-26v23h26V406z M396,427h-22v-19h22V427z M311,406h-26v23h26V406z M309,427h-22v-19h22V427z M365,436h-47v23h47
				V436z M363,457h-43v-19h43V457z M398,436h-26v23h26V436z M396,457h-22v-19h22V457z M311,436h-26v23h26V436z M309,457h-22v-19h22
				V457z M343,507v-26h-2v26H343z M337,507v-23h-13v23h2v-21h9v21H337z M359,507v-23h-12v23h2v-21h8v21H359z M365,507v-29h-47v29h2
				v-27h43v27H365z M365,465h-2.6l-2-2h-37.8l-2,2H318v7h2.6l2,2h37.8l2-2h2.6V465z M363,470h-1.4l-2,2h-36.2l-2-2H320v-3h1.4l2-2
				h36.2l2,2h1.4V470z"/>
		</g>
		<g>
			<rect x="134" y="447" style="fill:#DFE0E0;" width="102" height="63"/>
			<path style="opacity:0.5;fill:#FFFFFF;enable-background:new    ;" d="M134,456.2V510l88-88h-79v9l-12,12v8
				C131,453.2,132,455.2,134,456.2z"/>
			<path style="fill:#FFE5CC;" d="M140,510h28v-44h-28V510z M229,472v-5h-56v5h2v22h-2v5h56v-5h-2v-22H229z"/>
			<path style="fill:#FFFFFF;" d="M227,431v-8h-84v8l-12,12v8c0,3.3,2.7,6,6,6s6-2.7,6-6c0,3.3,2.7,6,6,6s6-2.7,6-6c0,3.3,2.7,6,6,6
				s6-2.7,6-6c0,3.3,2.7,6,6,6s6-2.7,6-6c0,3.3,2.7,6,6,6s6-2.7,6-6c0,3.3,2.7,6,6,6s6-2.7,6-6c0,3.3,2.7,6,6,6s6-2.7,6-6
				c0,3.3,2.7,6,6,6s6-2.7,6-6c0,3.3,2.7,6,6,6s6-2.7,6-6v-8L227,431z M147,484h14v-11h-14V484z M180,493h42v-20h-42V493z"/>
			<path style="fill:#A6D7EA;" d="M179,431v12v8h1c0,2.8,2.2,5,5,5s5-2.2,5-5h1v-8v-12v-7h-12V431z M155,424h-11v7.4l-12,12v7.6
				c0,2.8,2.2,5,5,5s5-2.2,5-5h1v-8l12-12V424z M209,424h-12v7l6,12v8h1c0,2.8,2.2,5,5,5s5-2.2,5-5h1v-8l-6-12V424z M226,431.4V424
				h-11v7l12,12v8h1c0,2.8,2.2,5,5,5v2c0.3,0,0.7,0,1-0.1V456l0.6-0.3c1.6-0.7,3.4-2.6,3.4-4.7v-7.6L226,431.4z M161,431l-6,12v8h1
				c0,2.8,2.2,5,5,5s5-2.2,5-5h1v-8l6-12v-7h-12V431z"/>
			<path style="fill:#3F4041;" d="M163,471h-18v15h18V471z M161,484h-14v-11h14V484z M168,507v-41h-28v41h2v-39h24v39H168z
				 M228,430.6V422h-86v8.6l-12,12v8.4c0,3.9,3.1,7,7,7c2.5,0,4.8-1.4,6-3.4c1.2,2,3.5,3.4,6,3.4s4.8-1.4,6-3.4c1.2,2,3.5,3.4,6,3.4
				s4.8-1.4,6-3.4c1.2,2,3.5,3.4,6,3.4s4.8-1.4,6-3.4c1.2,2,3.5,3.4,6,3.4s4.8-1.4,6-3.4c1.2,2,3.5,3.4,6,3.4s4.8-1.4,6-3.4
				c1.2,2,3.5,3.4,6,3.4s4.8-1.4,6-3.4c1.2,2,3.5,3.4,6,3.4s4.8-1.4,6-3.4c1.2,2,3.5,3.4,6,3.4v-2c-2.8,0-5-2.2-5-5h-2
				c0,2.8-2.2,5-5,5s-5-2.2-5-5h-2c0,2.8-2.2,5-5,5s-5-2.2-5-5h-2c0,2.8-2.2,5-5,5s-5-2.2-5-5h-2c0,2.8-2.2,5-5,5s-5-2.2-5-5h-2
				c0,2.8-2.2,5-5,5s-5-2.2-5-5h-2c0,2.8-2.2,5-5,5s-5-2.2-5-5h-2c0,2.8-2.2,5-5,5s-5-2.2-5-5h-2c0,2.8-2.2,5-5,5s-5-2.2-5-5v-7.6
				l12-12V424h82v7.4l12,12v7.6c0,2.2-1.7,4.1-3.4,4.7L234,456v52h-98v-49h-2v51h102v-52.7c2.1-1.1,4-3.5,4-6.3v-8.4L228,430.6z
				 M158,491.5c0,1.4,1.1,2.5,2.5,2.5s2.5-1.1,2.5-2.5s-1.1-2.5-2.5-2.5S158,490.1,158,491.5z M172,493v7h58v-7h-2v-20h2v-7h-58v7h2
				v20H172z M174,471v-3h54v3h-2v24h2v3h-54v-3h2v-24H174z M224,471h-46v24h46V471z M222,493h-42v-20h42V493z M202,474h-2v18h2V474z
				 M199,482h-18v2h18V482z M221,482h-18v2h18V482z M145,430v2h80v-2H145z M135,444h100v-2H135V444z"/>
		</g>
	</g>
</g>
</svg>
