<svg viewBox="0 0 141 141" xmlns="http://www.w3.org/2000/svg"><g><path d="m129.8.3h-119c-6.1 0-10.5 4.4-10.5 10.5v119.9c0 5.2 4.4 9.6 10.5 9.6h119c6.1 0 10.5-4.4 10.5-10.5v-119c0-6.1-4.4-10.5-10.5-10.5m-88.4 118.1h-20.1v-65.6h21v65.6h-.9m-9.6-74.3c-7 0-12.2-6.1-12.2-12.2 0-7 5.2-12.2 12.2-12.2 7 0 12.2 5.2 12.2 12.2-.8 6-6.1 12.2-12.2 12.2m87.5 74.3h-21v-31.5c0-7.9 0-17.5-10.5-17.5-10.5 0-12.2 8.7-12.2 17.5v31.5h-21v-65.6h20.1v8.8c2.6-5.2 9.6-10.5 19.2-10.5 21 0 24.5 14 24.5 31.5v35.9h.9v-.1"/></g></svg>
