<svg viewBox="0 0 141 115" xmlns="http://www.w3.org/2000/svg"><g><path d="m98 .1c-15.8 0-29.1 13.2-29.1 29.1 0 2.6 0 4.4.9 6.2-23.8-.9-45.8-12.3-59.9-29.9-2.6 4.4-3.5 8.8-3.5 14.1 0 9.7 5.3 18.5 13.2 23.8-4.4 0-8.8-1.8-13.2-3.5 0 14.1 9.7 25.5 22.9 28.2-2.6 1.8-5.3 1.8-7.9 1.8-1.8 0-3.5 0-5.3-.9 3.5 11.4 14.1 19.4 27.3 20.3-9.7 7.9-22 12.3-36.1 12.3h-7c13.2 7.9 28.2 13.2 44 13.2 52.8 0 81.9-44 81.9-81.9v-3.5c5.3-4.4 10.6-8.8 14.1-15-4.4 1.8-9.7 3.5-15.8 3.5 6.2-3.5 10.6-8.8 12.3-15.8-5.3 3.5-11.4 5.3-18.5 7-4.5-5.5-12.4-9-20.3-9"/></g></svg>
