<svg id="Artwork" xmlns="http://www.w3.org/2000/svg" viewBox="0 0 100 100"><title>icon</title><polygon points="75 25 65 21.7 65 16.7 50 16.7 35 16.7 35 21.7 25 25 13.3 40 24.2 50.8 30 45 30 73.3 38.3 81.7 48.3 73.3 50 73.3 51.7 73.3 61.7 81.7 70 73.3 70 45 75.8 50.8 86.7 40 75 25" style="fill:#3f4041"/><polygon points="53.3 40 50.6 37.3 54.6 33.3 50 28.8 45.4 33.3 49.4 37.3 46.7 40 45 60 50 63.3 55 60 53.3 40" style="fill:#237491"/><g style="opacity:0.1"><polygon points="30 73.3 76.5 26.9 75 25 65 21.7 65 16.7 50 16.7 35 16.7 35 21.7 25 25 13.3 40 24.2 50.8 30 45 30 73.3" style="fill:#fff"/></g><path d="M18.3,38l7,7,1.4-1.4-7-7ZM75.6,24.1L64.7,20.5,58.2,27,52,22.3H48L41.8,27l-4.2-4.2-1.4,1.4,5.4,5.4,7.1-5.3h2.7l7.1,5.3,6.8-6.8,9.1,3L85.3,39.9l-9.5,9.5L69,42.6V72.9l-7.4,7.4-9.6-8H48l-9.6,8L31,72.9V42.6l-6.8,6.8-9.5-9.5L25.6,25.9,36,22.4V17.7H63V19h2V15.7H34v5.3l-9.6,3.2L12,40.1,24.2,52.2,29,47.4V73.7L38.3,83l10.4-8.7h2.6L61.7,83,71,73.7V47.4l4.8,4.8L88,40.1Zm4.7,12.5-7,7L74.7,45l7-7ZM49,70.8h2v-5H49v5ZM44,60.5l6,4,6-4-1.7-21L52,37.3l4-4-6-6-6,6,4,4-2.3,2.3Zm2.9-27.2L50,30.2l3.2,3.2-2.5,2.5h0l-0.6.6-0.6-.6h0Zm0.8,7.1,1.7-1.7L50,39.3l0.6-.6,1.7,1.7,1.6,19-4,2.6-4-2.6Z" style="fill:#dfe0e0"/></svg>