<svg id="Artwork" xmlns="http://www.w3.org/2000/svg" viewBox="0 0 100 100"><title>icon-resize-work</title><g id="Marketplace_Icon" data-name="Marketplace Icon"><rect width="100" height="100" style="fill:none"/><path d="M9,37V82h8V52H39V82H91V37H9ZM47,72V69H45V57h2V56H83v1h2V69H83v3H47Z" style="fill:#3f4041"/><path d="M9,18V37a9,9,0,0,0,17,4.1,9,9,0,0,0,16,0,9,9,0,0,0,16,0,9,9,0,0,0,16,0A9,9,0,0,0,91,37V18H9Z" style="fill:#237491"/><polygon points="9 18 9 82 17 74 17 52 39 52 73 18 9 18" style="fill:#fff;opacity:0.1"/><path d="M47,71V57H45V71h2Zm38,0V57H83V71h2ZM43,78H87V72H43v6Zm2-4H85v2H45V74ZM87,50H43v6H87V50Zm-2,4H45V52H85v2ZM64,57v5h2V57H64Zm2,14V66H64v5h2Zm16-8H48v2H82V63ZM21,68H35V56H21V68Zm2-10H33v8H23V58ZM33,70a2,2,0,1,0,2,2A2,2,0,0,0,33,70ZM91,36V18H9V37a9,9,0,0,0,17,4.1,9,9,0,0,0,16,0,9,9,0,0,0,16,0,9,9,0,0,0,16,0A9,9,0,0,0,82,46a9.2,9.2,0,0,0,7-3.3V80H41V50H15V80H11V45H9V82h8V52H39V82H91V37H89a7,7,0,0,1-14,0H73a7,7,0,0,1-14,0H57a7,7,0,0,1-14,0H41a7,7,0,0,1-14,0H25a7,7,0,0,1-14,0V20H89V36h2Z" style="fill:#dfe0e0"/></g></svg>