<svg id="Artwork" xmlns="http://www.w3.org/2000/svg" viewBox="0 0 100 100"><title>icon</title><polygon points="82 82 28 82 28 75 27 74 27 72 72 72 72 28 82 28 82 82" style="stroke:#000;stroke-miterlimit:10"/><path d="M73,17H17V73H73V17Z" style="fill:#3f4041"/><polygon points="45 53.1 37 57.4 38.5 48.4 32 42.1 41 40.8 45 32.6 49 40.8 58 42.1 51.5 48.4 53 57.4 45 53.1" style="fill:#237491"/><g style="opacity:0.1"><polygon points="18 72 18 18 72 18 18 72" style="fill:#fff"/></g><path d="M49.7,39.9L45,30.4l-4.7,9.5L29.9,41.4l7.6,7.4L35.6,59.2,45,54.3l9.4,4.9L52.6,48.8l7.6-7.4Zm2,15.7L45,52l-6.7,3.5,1.3-7.5-5.4-5.3,7.5-1.1L45,34.9l3.4,6.8,7.5,1.1-5.4,5.3ZM71,27V71H19V19H71v7h2V17H17V73H73V29h8V81H29V74H27v9H83V27H71Z" style="fill:#dfe0e0"/></svg>