<svg id="Artwork" xmlns="http://www.w3.org/2000/svg" viewBox="0 0 100 100"><title>icon</title><path d="M80.3,36.6l-7,7L74.7,45l7-7ZM49,70.8h2v-5H49v5ZM75.6,24.1L64.7,20.5,58.2,27,52,22.3H48L41.8,27l-4.2-4.2-1.4,1.4,5.4,5.4,7.1-5.3h2.7l7.1,5.3,6.8-6.8,9.1,3L85.3,39.9l-9.5,9.5L69,42.6V72.9l-7.4,7.4-9.6-8H48l-9.6,8L31,72.9V42.6l-6.8,6.8-9.5-9.5L25.6,25.9,36,22.4V17.7H63V19h2V15.7H34v5.3l-9.6,3.2L12,40.1,24.2,52.2,29,47.4V73.7L38.3,83l10.4-8.7h2.6L61.7,83,71,73.7V47.4l4.8,4.8L88,40.1ZM18.3,38l7,7,1.4-1.4-7-7ZM44,60.5l6,4,6-4-1.7-21L52,37.3l4-4-6-6-6,6,4,4-2.3,2.3Zm2.9-27.2L50,30.2l3.2,3.2L50,36.5Zm0.8,7.1,1.7-1.7L50,39.3l0.6-.6,1.7,1.7,1.6,19-4,2.6-4-2.6Z" style="fill:#dfe0e0"/></svg>