<?xml version="1.0" encoding="utf-8"?>
<!-- Generator: Adobe Illustrator 19.1.0, SVG Export Plug-In . SVG Version: 6.00 Build 0)  -->
<svg version="1.1" id="ARTWORK" xmlns="http://www.w3.org/2000/svg" xmlns:xlink="http://www.w3.org/1999/xlink" x="0px" y="0px"
	 viewBox="0 0 290 32" style="enable-background:new 0 0 290 32;" xml:space="preserve">
<style type="text/css">
	.st0{fill:#FFFFFF;}
</style>
<path class="st0" d="M41.9,13.2c0-1.3,1.4-1.7,2.4-1.7c1.3,0,2.2,0.4,2.8,1.6l1.1-0.5c-0.8-1.6-2.1-2.3-3.9-2.3s-3.6,0.9-3.6,2.9
	c0,4,6.7,2.1,6.7,5.2c0,1.5-1.5,2.1-2.7,2.1c-1.4,0-2.8-0.5-3.1-2l-1.2,0.2c0.5,2.1,2.1,3,4.4,3c2,0,4-1.2,4-3.3
	C48.6,14.2,41.9,15.9,41.9,13.2z M49.3,11.7h3.5v9.9H54v-9.9h3.5v-1.2h-8.2V11.7z M62.9,16.4l-2.9-6h-1.4l3.7,7.5v3.7h1.3v-3.7
	l3.7-7.5h-1.4L62.9,16.4z M70.2,10.4h-1.3v11.2h6.6v-1.2h-5.3V10.4z M77.4,21.6h7.3v-1.2h-6v-3.9h5.2v-1.2h-5.2v-3.6h6v-1.2h-7.3
	V21.6z M95.6,16.8h2.6c0,1.8-0.6,3.7-2.6,3.7c-2.6,0-3.2-2.4-3.2-4.5c0-2.1,0.6-4.5,3.2-4.5c1.2,0,1.9,0.5,2.6,1.4l0.9-0.8
	c-1-1.2-1.9-1.8-3.5-1.8c-3.3,0-4.5,2.8-4.5,5.7c0,2.9,1.2,5.7,4.5,5.7c1.3,0,2.2-0.4,2.8-1.8v1.6h1.1v-5.9h-3.8V16.8z M108.4,16.8
	c0,1.9-0.4,3.7-2.8,3.7c-2.4,0-2.8-1.8-2.8-3.7v-6.4h-1.3v6.5c0,2.8,1,4.9,4.1,4.9c3.1,0,4.1-2,4.1-4.9v-6.5h-1.3V16.8z M112.3,21.6
	h1.3V10.4h-1.3V21.6z M119.4,10.4h-3.2v11.2h3.2c4.4,0,4.9-1.7,4.9-5.6C124.3,12.1,123.8,10.4,119.4,10.4z M122.6,19.3
	c-0.4,0.8-1.3,1.1-3,1.1h-2.1v-8.7h2.1c1.7,0,2.6,0.3,3,1c0.4,0.7,0.4,2,0.4,3.3C123.1,17.3,123.1,18.5,122.6,19.3z M126.6,21.6h7.3
	v-1.2h-6v-3.9h5.2v-1.2h-5.2v-3.6h6v-1.2h-7.3V21.6z M140.7,21.6h1.3v-5.2h5.2v-1.2h-5.2v-3.6h5.8v-1.2h-7.1V21.6z M153.7,10.3
	c-3.3,0-4.5,2.8-4.5,5.7c0,2.9,1.2,5.7,4.5,5.7c3.3,0,4.5-2.8,4.5-5.7C158.3,13,157.1,10.3,153.7,10.3z M153.7,20.5
	c-2.7,0-3.2-2.4-3.2-4.5c0-2.1,0.6-4.5,3.2-4.5c2.7,0,3.2,2.4,3.2,4.5C157,18.1,156.4,20.5,153.7,20.5z M165,16.5
	c1.8-0.3,2.8-1.3,2.8-3c0-2.2-1.6-3.1-3.6-3.1h-3.9v11.2h1.3v-5h1.5c0.8,0,1.1,0.5,1.5,1l2.3,3.9h1.5l-2.5-4.1
	C165.6,17.1,165.3,16.7,165,16.5z M164.2,15.5h-2.6v-3.8h2.6c1.3,0,2.4,0.4,2.4,1.9S165.5,15.5,164.2,15.5z M178.1,10.4l-4.3,11.2
	h1.4l1.2-3.2h4.8l1.2,3.2h1.4l-4.3-11.2H178.1z M176.8,17.3l2-5.2l2,5.2H176.8z M189.4,10.4h-4.2v11.2h1.3v-4.9h2.9
	c2.2,0,3.7-0.8,3.7-3.2C193.1,11.3,191.6,10.4,189.4,10.4z M189.4,15.5h-2.9v-3.9h2.9c1.3,0,2.4,0.3,2.4,1.9S190.7,15.5,189.4,15.5z
	 M198.9,10.4h-4.2v11.2h1.3v-4.9h2.9c2.2,0,3.7-0.8,3.7-3.2C202.6,11.3,201.1,10.4,198.9,10.4z M198.9,15.5H196v-3.9h2.9
	c1.3,0,2.4,0.3,2.4,1.9S200.2,15.5,198.9,15.5z M207.7,10.4h-3.2v11.2h3.2c4.4,0,4.9-1.7,4.9-5.6C212.6,12.1,212.1,10.4,207.7,10.4z
	 M210.9,19.3c-0.4,0.8-1.3,1.1-3,1.1h-2.1v-8.7h2.1c1.7,0,2.6,0.3,3,1c0.4,0.7,0.4,2,0.4,3.3C211.4,17.3,211.4,18.5,210.9,19.3z
	 M215,21.6h1.3V10.4H215V21.6z M223.7,16.5c1.8-0.3,2.8-1.3,2.8-3c0-2.2-1.6-3.1-3.6-3.1H219v11.2h1.3v-5h1.5c0.8,0,1.1,0.5,1.5,1
	l2.3,3.9h1.5l-2.5-4.1C224.3,17.1,224,16.7,223.7,16.5z M222.9,15.5h-2.6v-3.8h2.6c1.3,0,2.4,0.4,2.4,1.9S224.2,15.5,222.9,15.5z
	 M228.9,21.6h7.3v-1.2h-6v-3.9h5.2v-1.2h-5.2v-3.6h6v-1.2h-7.3V21.6z M242.1,20.5c-2.6,0-3.3-2.4-3.3-4.5c0-2.1,0.7-4.5,3.3-4.5
	c1.2,0,1.9,0.5,2.7,1.3l0.9-0.9c-1-1.2-2-1.7-3.6-1.7c-3.3,0-4.6,2.8-4.6,5.7c0,3,1.3,5.7,4.6,5.7c1.7,0,2.5-0.6,3.6-1.8l-0.9-0.8
	C244,19.9,243.3,20.5,242.1,20.5z M246.8,11.7h3.5v9.9h1.3v-9.9h3.5v-1.2h-8.2V11.7z M257,19.9c-0.5,0-0.9,0.4-0.9,0.9
	c0,0.5,0.4,0.9,0.9,0.9c0.5,0,0.9-0.4,0.9-0.9C257.9,20.3,257.5,19.9,257,19.9z M264.5,20.5c-2.6,0-3.3-2.4-3.3-4.5
	c0-2.1,0.7-4.5,3.3-4.5c1.2,0,1.9,0.5,2.7,1.3l0.9-0.9c-1-1.2-2-1.7-3.6-1.7c-3.3,0-4.6,2.8-4.6,5.7c0,3,1.3,5.7,4.6,5.7
	c1.7,0,2.5-0.6,3.6-1.8l-0.9-0.8C266.5,19.9,265.8,20.5,264.5,20.5z M273.9,10.3c-3.3,0-4.5,2.8-4.5,5.7c0,2.9,1.2,5.7,4.5,5.7
	c3.3,0,4.5-2.8,4.5-5.7C278.4,13,277.3,10.3,273.9,10.3z M273.9,20.5c-2.7,0-3.2-2.4-3.2-4.5c0-2.1,0.6-4.5,3.2-4.5
	c2.7,0,3.2,2.4,3.2,4.5C277.2,18.1,276.6,20.5,273.9,20.5z M288.8,10.4l-3.6,9.3l-3.6-9.3h-1.3v11.2h1.3v-8l3.1,8h1l3.1-8v8h1.3
	V10.4H288.8z"/>
<path class="st0" d="M14.8,9l-4.3-6.8L1.7,25.5l8.8-3.8L14.8,9z M27.4,14.3L17.3,0h-7l10.8,17.1L27.4,14.3z M0,27.3L6.8,32l21.5-9.1
	l3.7-9.4L0,27.3z"/>
</svg>
